<?xml version="1.0" standalone="no"?>
<!DOCTYPE svg PUBLIC "-//W3C//DTD SVG 20010904//EN"
 "http://www.w3.org/TR/2001/REC-SVG-20010904/DTD/svg10.dtd">
<svg version="1.0" xmlns="http://www.w3.org/2000/svg"
 width="1154.000000pt" height="1600.000000pt" viewBox="0 0 1154.000000 1600.000000"
 preserveAspectRatio="xMidYMid meet">

<g transform="translate(0.000000,1600.000000) scale(0.100000,-0.100000)"
fill="#000000" stroke="none">
<path d="M7730 13311 c0 -12 5 -21 10 -21 6 0 10 6 10 14 0 8 -4 18 -10 21 -5
3 -10 -3 -10 -14z"/>
<path d="M7761 13008 c-1 -21 1 -38 3 -38 18 0 36 15 35 29 0 12 -2 13 -6 2
-4 -10 -10 -5 -19 15 l-12 29 -1 -37z"/>
<path d="M5470 13000 c0 -5 4 -10 9 -10 6 0 13 5 16 10 3 6 -1 10 -9 10 -9 0
-16 -4 -16 -10z"/>
<path d="M5445 12940 c-3 -5 0 -19 8 -31 l15 -21 7 21 c10 32 -14 57 -30 31z"/>
<path d="M7793 12939 c-15 -15 -17 -49 -3 -49 6 0 10 -5 10 -11 0 -5 -4 -7
-10 -4 -6 4 -8 -6 -6 -24 2 -17 -1 -32 -6 -33 -5 -2 -3 -12 5 -22 13 -17 15
-15 27 28 16 56 4 136 -17 115z"/>
<path d="M5490 12899 c0 -5 5 -7 10 -4 6 3 10 8 10 11 0 2 -4 4 -10 4 -5 0
-10 -5 -10 -11z"/>
<path d="M3185 12879 c-5 -8 -4 -10 3 -5 7 4 12 3 12 -2 0 -6 14 -15 30 -21
28 -9 43 -41 20 -41 -5 0 -10 -6 -10 -13 0 -18 -49 -40 -64 -29 -13 11 -29 13
-91 14 -91 2 -115 -2 -115 -17 0 -17 -21 -20 -48 -6 -65 33 -115 43 -140 27
-6 -3 -13 0 -15 6 -4 9 -8 9 -14 3 -4 -5 -12 -10 -18 -10 -30 -1 -75 -18 -75
-28 0 -7 9 -23 19 -36 15 -20 26 -24 57 -22 53 4 83 3 121 -5 18 -3 41 -3 50
1 10 5 22 7 26 6 4 -1 15 5 23 13 10 10 22 13 37 7 12 -4 42 -9 67 -10 44 -2
160 -31 196 -48 10 -6 33 -16 49 -24 17 -8 36 -28 44 -44 8 -17 34 -52 59 -80
25 -27 50 -61 56 -75 6 -14 14 -27 17 -30 17 -13 59 -106 59 -131 0 -20 10
-36 36 -56 48 -38 63 -70 57 -118 -8 -66 -5 -125 11 -174 8 -25 18 -71 21
-101 29 -272 26 -400 -11 -471 -34 -64 -35 -150 -3 -334 14 -81 38 -145 66
-176 12 -14 23 -30 23 -37 0 -7 7 -12 15 -12 11 0 15 11 15 41 0 66 18 86 85
96 28 4 33 0 53 -40 25 -50 39 -107 26 -107 -5 0 -10 -31 -11 -70 -2 -64 -1
-71 22 -86 42 -28 43 -22 33 143 -2 29 -6 53 -10 53 -12 0 -3 50 17 94 9 21
20 62 25 90 11 65 25 102 42 108 7 3 19 27 26 54 7 27 17 56 21 64 5 9 1 28
-11 48 -14 26 -16 37 -8 48 7 7 9 17 6 22 -3 6 1 15 9 22 18 15 20 46 3 56 -7
5 -4 10 11 15 28 11 37 37 21 62 -9 15 -10 22 -1 25 6 2 11 8 11 14 0 5 -9 6
-20 3 -23 -7 -24 -3 -10 25 6 11 15 29 20 40 16 32 12 50 -12 51 -18 1 -19 2
-5 6 25 6 3 33 -27 33 -20 0 -22 5 -21 46 1 41 -13 90 -55 202 -7 18 -10 49
-7 68 3 19 2 34 -3 34 -5 0 -14 19 -21 43 -6 23 -21 56 -33 72 -13 17 -26 39
-30 50 -3 11 -19 36 -36 55 -16 19 -30 41 -30 48 0 6 -4 12 -9 12 -5 0 -12 25
-16 55 -6 52 -10 58 -53 90 -26 19 -53 35 -59 35 -7 0 -13 7 -13 15 0 8 -6 15
-14 15 -19 0 -35 47 -32 93 3 58 -40 83 -154 89 -52 3 -70 8 -88 26 -12 12
-22 27 -22 32 0 19 -24 37 -42 32 -9 -2 -34 10 -55 27 -44 35 -96 50 -108 30z"/>
<path d="M5419 12878 c-1 -7 -1 -19 0 -25 1 -7 -3 -13 -10 -13 -6 0 -9 -6 -6
-14 3 -7 0 -19 -6 -25 -7 -7 -8 -14 -1 -21 13 -13 59 72 51 94 -7 19 -26 21
-28 4z"/>
<path d="M5459 12837 c-13 -18 -24 -34 -24 -37 -1 -3 -5 -23 -10 -45 -4 -22
-9 -62 -10 -90 0 -27 -4 -56 -9 -63 -4 -7 -4 -18 1 -25 5 -7 6 -25 2 -42 l-7
-30 -1 31 c0 18 -8 45 -16 60 -19 37 -19 58 0 74 8 7 15 24 15 39 -1 26 -1 26
-14 -5 -8 -18 -22 -36 -31 -42 -15 -8 -16 -16 -9 -48 4 -22 8 -44 7 -51 0 -6
6 -9 15 -6 10 4 13 2 8 -5 -4 -7 -13 -12 -20 -12 -18 0 -26 -33 -14 -54 5 -9
5 -16 1 -16 -25 -1 -34 -17 -22 -44 10 -20 10 -29 1 -38 -9 -9 -12 -9 -12 0 0
7 -5 12 -12 12 -9 0 -9 -3 0 -12 7 -7 12 -23 12 -37 0 -15 5 -33 10 -41 9 -13
11 -13 19 -1 6 10 9 0 9 -30 -1 -27 8 -60 22 -87 26 -50 43 -64 35 -29 -4 14
-2 35 5 46 8 15 8 21 0 21 -6 0 -8 4 -5 10 3 5 0 7 -7 5 -13 -5 -22 32 -19 75
1 8 1 25 1 38 0 26 19 30 21 5 1 -10 5 -2 8 17 4 19 3 52 -2 73 -8 30 -6 41 7
56 18 20 49 121 38 121 -4 0 -2 4 5 8 22 14 43 78 31 90 -9 9 -9 12 0 12 7 0
12 4 12 9 0 4 -11 6 -25 3 -30 -5 -31 2 -5 31 12 12 16 23 10 25 -17 6 -11 20
10 27 23 7 26 21 6 28 -8 3 -24 -8 -37 -26z m1 -107 c0 -5 -4 -10 -10 -10 -5
0 -10 5 -10 10 0 6 5 10 10 10 6 0 10 -4 10 -10z m-92 -265 c-6 -14 -13 -23
-15 -21 -5 5 15 46 22 46 3 0 -1 -11 -7 -25z m26 -40 c5 -22 4 -26 -4 -15 -5
8 -10 24 -10 34 0 26 6 18 14 -19z m-34 -85 c0 -5 -5 -10 -11 -10 -5 0 -7 5
-4 10 3 6 8 10 11 10 2 0 4 -4 4 -10z"/>
<path d="M7128 12813 c6 -2 18 -2 25 0 6 3 1 5 -13 5 -14 0 -19 -2 -12 -5z"/>
<path d="M7060 12778 c0 -5 -9 -8 -20 -8 -11 0 -20 -3 -20 -8 0 -4 -10 -13
-21 -21 -17 -10 -23 -10 -29 -1 -6 9 -11 6 -20 -9 -19 -36 3 -51 71 -51 33 0
67 4 77 9 32 17 100 31 118 25 15 -5 16 -4 4 5 -12 8 -12 11 3 17 9 3 29 3 43
0 15 -4 23 -3 20 3 -4 5 2 12 11 14 12 3 9 5 -8 6 -15 0 -41 4 -60 8 -28 5
-30 7 -14 14 11 4 -19 7 -67 6 -49 -1 -88 -5 -88 -9z"/>
<path d="M6920 12761 c0 -7 -4 -10 -9 -7 -5 3 -14 -1 -21 -9 -16 -19 0 -19 26
-1 10 8 16 18 11 22 -4 4 -7 2 -7 -5z"/>
<path d="M6854 12748 c-9 -14 -43 -32 -55 -30 -4 1 -4 -8 -1 -20 l5 -22 15 22
c8 12 21 22 29 22 10 0 3 -16 -21 -49 -20 -27 -36 -52 -36 -56 0 -5 13 10 29
32 16 23 38 47 48 54 16 12 17 18 7 38 -9 18 -14 20 -20 9z"/>
<path d="M7859 12748 c-2 -50 -10 -92 -18 -98 -6 -3 -8 -16 -4 -28 3 -12 9
-19 14 -16 5 3 9 -7 9 -21 0 -15 4 -24 10 -20 7 4 7 -3 0 -20 -13 -34 -13 -85
0 -85 6 0 10 -5 10 -11 0 -5 -6 -7 -12 -4 -7 4 3 -7 22 -24 32 -28 33 -30 13
-31 -12 0 -34 5 -48 12 -19 9 -28 9 -37 0 -8 -8 -7 -13 5 -18 10 -4 18 -18 18
-38 2 -29 2 -29 6 -4 5 32 33 47 33 17 0 -14 4 -18 13 -12 6 4 28 13 47 19 26
7 34 15 32 29 -2 11 -10 24 -18 30 -16 12 -8 95 10 92 6 -1 9 10 8 27 -3 18 0
26 7 22 15 -10 13 15 -3 37 -8 10 -12 38 -11 72 2 30 -1 52 -6 49 -5 -3 -9
-18 -9 -35 0 -16 -5 -29 -11 -29 -6 0 -9 6 -6 14 7 17 -28 60 -41 52 -6 -3 -9
2 -8 11 0 9 -5 18 -11 20 -7 3 -13 -1 -14 -9z m18 -70 c-3 -8 -6 -5 -6 6 -1
11 2 17 5 13 3 -3 4 -12 1 -19z m13 -183 c0 -14 -4 -25 -10 -25 -5 0 -10 11
-10 25 0 14 5 25 10 25 6 0 10 -11 10 -25z"/>
<path d="M2545 12740 c-11 -5 -14 -9 -7 -9 7 -1 10 -5 7 -11 -3 -5 -2 -10 3
-10 5 0 12 9 15 20 3 11 4 20 4 19 -1 0 -11 -4 -22 -9z"/>
<path d="M2625 12701 c-3 -5 -1 -12 5 -16 5 -3 10 1 10 9 0 18 -6 21 -15 7z"/>
<path d="M2660 12708 c-2 -5 -3 -11 -4 -15 -1 -5 -5 -14 -9 -20 -5 -8 -4 -13
3 -13 13 0 24 25 17 42 -3 7 -6 10 -7 6z"/>
<path d="M2446 12689 c5 -8 -1 -10 -19 -7 -22 4 -28 0 -36 -23 -5 -16 -8 -38
-6 -50 7 -35 -13 -62 -41 -55 -17 5 -24 2 -24 -9 0 -9 -9 -15 -25 -15 -20 0
-25 5 -25 24 0 14 -4 27 -8 30 -9 5 -42 -28 -42 -43 0 -5 -6 -11 -14 -14 -7
-3 -16 -22 -20 -41 -4 -20 -12 -36 -18 -36 -7 0 2 -15 19 -32 25 -26 30 -39
26 -60 -3 -15 -9 -25 -13 -23 -5 3 -11 1 -15 -5 -3 -5 -1 -10 4 -10 6 0 11 -5
11 -11 0 -6 -9 -9 -20 -6 -13 3 -20 0 -20 -10 0 -8 -4 -11 -10 -8 -6 4 -10 -7
-10 -24 0 -17 -5 -31 -11 -31 -5 0 -7 -5 -3 -11 3 -6 0 -16 -7 -21 -10 -7 -5
-8 15 -3 26 5 28 4 17 -9 -8 -9 -20 -16 -29 -16 -8 0 -13 -3 -9 -6 3 -3 -2
-15 -13 -26 -10 -11 -18 -34 -18 -53 0 -42 -7 -54 -39 -66 -18 -7 -24 -15 -20
-28 3 -14 1 -18 -9 -14 -22 8 -16 -12 11 -35 29 -26 32 -47 8 -61 -17 -10 -17
-10 0 -11 9 0 17 -4 17 -10 0 -5 -9 -10 -21 -10 -20 0 -21 -3 -14 -85 l7 -85
-30 -28 c-29 -27 -30 -31 -21 -73 6 -24 8 -61 6 -81 -3 -21 -1 -38 4 -38 15 0
10 -30 -6 -36 -20 -8 -19 -21 5 -47 l21 -21 -21 -8 c-30 -11 -25 -49 10 -83
24 -23 30 -37 30 -71 0 -31 4 -43 18 -46 9 -3 26 -21 37 -41 l19 -36 -29 -31
c-16 -16 -33 -30 -38 -30 -5 0 -24 16 -42 36 -18 20 -36 31 -39 25 -4 -5 -2
-12 3 -15 5 -3 12 -22 15 -41 6 -30 11 -35 35 -35 16 0 35 -7 42 -17 13 -15
11 -16 -13 -10 -27 7 -27 6 -17 -20 5 -15 15 -33 21 -40 8 -10 7 -13 -3 -13
-11 0 -11 -2 1 -10 10 -6 13 -23 11 -55 -2 -33 1 -45 11 -43 8 2 12 -6 10 -24
-5 -42 23 -84 73 -108 38 -18 50 -20 79 -10 22 7 47 8 74 2 33 -8 45 -6 71 10
28 18 31 25 31 68 0 43 6 57 48 112 42 55 51 62 82 63 29 0 37 5 49 30 7 16
14 44 16 60 5 64 18 135 25 135 18 0 -1 64 -53 170 -46 95 -59 129 -63 160 -1
14 -5 50 -9 80 -3 30 -9 75 -13 100 -4 25 -7 92 -6 150 1 90 4 110 23 142 24
40 23 71 -4 126 -8 15 -13 52 -13 82 1 30 -3 71 -7 90 -14 61 -13 114 3 155 9
22 19 42 23 45 3 3 15 21 26 41 10 20 32 53 49 75 47 60 63 98 50 117 -9 11
-17 13 -29 5 -25 -13 -87 -21 -67 -8 13 8 12 10 -2 10 -10 0 -18 4 -18 10 0 5
8 14 18 20 13 8 9 9 -20 4 -25 -4 -38 -2 -38 5 0 6 -5 11 -11 11 -5 0 -7 -5
-3 -11z m-276 -459 c0 -5 -5 -10 -11 -10 -5 0 -7 5 -4 10 3 6 8 10 11 10 2 0
4 -4 4 -10z"/>
<path d="M5960 12689 c-19 -5 -42 -12 -50 -15 -18 -6 -26 -5 -23 6 1 4 -9 5
-23 2 -18 -3 -22 -8 -14 -17 5 -6 6 -16 2 -20 -4 -5 -1 -5 6 -1 15 9 54 -2 47
-14 -3 -4 -14 -6 -24 -3 -10 3 -22 0 -25 -6 -5 -7 13 -11 56 -12 50 -1 57 -3
33 -9 -28 -7 -29 -8 -4 -9 14 0 30 -6 37 -13 9 -9 23 -9 59 0 27 7 82 10 123
8 42 -2 81 1 88 6 8 8 12 6 12 -5 0 -11 6 -14 15 -10 30 11 -13 43 -59 44 -38
0 -39 1 -16 10 25 10 24 11 -22 35 -54 27 -163 39 -218 23z m10 -23 c0 -2 -13
-6 -29 -8 -17 -2 -28 -1 -25 4 5 8 54 12 54 4z m175 -56 c-27 -12 -35 -12 -35
0 0 6 12 10 28 9 24 0 25 -1 7 -9z"/>
<path d="M6216 12674 c54 -36 101 -81 136 -132 16 -24 32 -41 35 -39 6 7 -47
87 -58 87 -5 0 -9 14 -9 31 0 53 -16 71 -60 68 -22 -2 -42 0 -46 4 -4 4 -14 7
-22 7 -8 0 3 -12 24 -26z"/>
<path d="M2266 12644 c-9 -23 -2 -28 13 -10 7 8 8 17 3 20 -6 3 -13 -1 -16
-10z"/>
<path d="M5766 12611 c-3 -5 8 -11 24 -13 24 -4 27 -2 19 9 -13 15 -35 17 -43
4z"/>
<path d="M6772 12588 c-13 -17 -27 -66 -15 -53 10 11 34 65 29 65 -2 0 -8 -6
-14 -12z"/>
<path d="M4109 12522 c-20 -22 -31 -52 -19 -52 5 0 7 -7 4 -15 -4 -9 0 -15 10
-15 9 0 16 5 16 10 0 6 6 10 14 10 16 0 15 25 -1 41 -6 6 -9 18 -6 25 7 18 2
17 -18 -4z"/>
<path d="M6731 12383 c-1 -72 3 -101 19 -139 11 -26 23 -44 26 -41 3 3 1 14
-5 25 -6 11 -14 37 -19 58 -8 38 -8 40 16 39 14 0 27 6 30 14 3 9 0 11 -8 6
-9 -5 -10 -2 -5 14 3 11 2 21 -3 21 -6 0 -13 11 -16 25 -4 14 -11 23 -16 20
-5 -3 -11 7 -13 22 -2 16 -5 -13 -6 -64z m16 -5 c-3 -7 -5 -2 -5 12 0 14 2 19
5 13 2 -7 2 -19 0 -25z"/>
<path d="M7107 12464 c-2 -2 -20 -5 -40 -8 -20 -2 -49 -11 -64 -19 -16 -8 -45
-24 -65 -35 -21 -11 -35 -22 -32 -25 8 -7 62 9 89 27 38 25 57 24 62 -4 2 -13
7 -28 12 -33 12 -12 79 -26 124 -27 30 0 40 5 49 25 6 14 18 25 27 25 20 0 57
-39 38 -41 -6 -1 1 -4 17 -8 16 -3 49 -4 72 -3 55 5 46 14 -67 69 -56 28 -108
45 -152 51 -37 5 -68 7 -70 6z"/>
<path d="M6404 12426 c16 -68 18 -81 7 -66 -8 12 -13 12 -23 2 -9 -9 -9 -12 0
-12 7 0 12 -7 12 -15 0 -9 -6 -12 -17 -8 -11 4 -14 3 -9 -5 4 -7 17 -12 28
-12 19 0 20 -4 15 -59 -6 -72 -51 -169 -108 -237 l-43 -49 48 45 c57 54 75 88
110 201 35 114 35 179 0 214 l-27 27 7 -26z"/>
<path d="M7632 12395 c0 -16 2 -22 5 -12 2 9 2 23 0 30 -3 6 -5 -1 -5 -18z"/>
<path d="M5970 12358 c-66 -25 -190 -113 -190 -135 0 -11 5 -13 18 -8 9 5 48
10 85 13 63 4 67 5 48 19 -17 11 -19 18 -11 34 14 25 40 24 47 -1 3 -11 10
-20 17 -21 31 -3 76 4 119 17 42 14 47 19 47 45 0 34 8 36 57 9 38 -20 83 -26
97 -13 3 4 -13 12 -36 19 -24 7 -61 19 -83 28 -57 22 -149 19 -215 -6z"/>
<path d="M5800 12325 c-13 -14 -21 -27 -18 -31 3 -3 16 9 28 25 26 37 22 40
-10 6z"/>
<path d="M7621 12334 c0 -11 3 -14 6 -6 3 7 2 16 -1 19 -3 4 -6 -2 -5 -13z"/>
<path d="M5390 12301 c0 -6 4 -13 10 -16 6 -3 7 1 4 9 -7 18 -14 21 -14 7z"/>
<path d="M5541 12214 c0 -11 3 -14 6 -6 3 7 2 16 -1 19 -3 4 -6 -2 -5 -13z"/>
<path d="M7586 12215 c-9 -26 -7 -32 5 -12 6 10 9 21 6 23 -2 3 -7 -2 -11 -11z"/>
<path d="M5428 12170 c-3 -16 -3 -30 -1 -30 13 0 44 40 38 49 -12 21 -33 11
-37 -19z"/>
<path d="M6805 12140 c28 -48 75 -94 121 -120 28 -17 55 -30 60 -30 5 1 -9 10
-31 22 -22 12 -67 48 -100 82 -32 33 -55 54 -50 46z"/>
<path d="M7822 12090 c0 -14 2 -19 5 -12 2 6 2 18 0 25 -3 6 -5 1 -5 -13z"/>
<path d="M7907 12064 c-4 -4 -7 -14 -7 -23 0 -11 3 -12 11 -4 6 6 10 16 7 23
-2 6 -7 8 -11 4z"/>
<path d="M5650 12005 c13 -14 26 -25 28 -25 3 0 -5 11 -18 25 -13 14 -26 25
-28 25 -3 0 5 -11 18 -25z"/>
<path d="M7816 12005 c-3 -9 -6 -22 -5 -28 0 -7 5 -1 10 12 5 13 8 26 5 28 -2
2 -6 -3 -10 -12z"/>
<path d="M7067 11960 c13 -5 46 -12 75 -14 44 -5 47 -4 18 3 -61 15 -118 22
-93 11z"/>
<path d="M7233 11953 c9 -2 23 -2 30 0 6 3 -1 5 -18 5 -16 0 -22 -2 -12 -5z"/>
<path d="M7786 11898 c-3 -13 -6 -36 -6 -52 0 -16 -3 -26 -7 -22 -14 14 -33
-85 -21 -108 8 -15 8 -21 -1 -24 -6 -2 -11 -11 -11 -20 0 -13 -3 -12 -15 4
-13 16 -14 16 -9 2 4 -13 1 -18 -12 -18 -15 0 -16 -2 -5 -9 12 -8 12 -14 2
-39 -7 -17 -10 -35 -7 -41 4 -5 2 -12 -3 -15 -5 -4 -12 -2 -16 4 -12 20 -25
10 -19 -15 5 -20 3 -24 -9 -19 -13 4 -16 -3 -19 -38 -2 -30 -7 -42 -16 -40
-16 3 -112 -93 -112 -112 0 -15 -27 -25 -47 -19 -7 3 -13 11 -13 19 0 8 -9 14
-20 14 -24 0 -23 -2 -6 46 12 35 11 48 -3 107 -10 37 -27 80 -38 95 -25 34
-121 99 -159 108 l-29 7 23 -22 c25 -25 28 -48 8 -74 -10 -12 -16 -15 -21 -7
-4 7 -19 9 -36 5 -18 -4 -36 -2 -44 5 -8 6 -19 9 -25 5 -6 -4 -17 -1 -25 5 -8
7 -38 13 -67 14 -52 2 -75 8 -110 27 -10 5 -27 9 -38 9 -13 0 -20 7 -20 20 0
22 -16 27 -23 8 -3 -10 -7 -10 -20 1 -12 9 -14 18 -7 31 5 9 6 20 3 24 -3 3 7
6 23 6 17 0 35 -5 42 -12 9 -9 15 -9 24 0 9 9 9 12 -1 12 -8 0 -11 6 -7 15 14
36 -89 43 -141 9 -31 -20 -29 -34 5 -35 15 0 22 -3 16 -5 -7 -3 -10 -13 -7
-23 6 -22 -14 -38 -51 -43 -25 -3 -29 -7 -31 -40 -2 -41 -20 -63 -52 -64 -28
-1 -28 4 -3 36 11 14 20 28 20 31 0 10 -49 29 -74 29 -24 0 -56 28 -56 48 0 7
7 12 15 12 8 0 15 6 15 14 0 18 -43 46 -70 46 -23 0 -80 -26 -81 -38 0 -4 -2
-17 -4 -28 -4 -19 -1 -21 41 -18 l45 3 -27 -34 c-28 -37 -40 -43 -47 -22 -5
13 -47 -28 -47 -45 0 -5 -10 -7 -22 -4 -13 3 -17 3 -11 0 10 -4 10 -9 -1 -20
-29 -28 -116 -53 -116 -33 0 10 -52 1 -60 -11 -3 -4 -19 -11 -37 -14 -31 -7
-31 -7 -28 26 1 18 6 41 10 51 13 30 -14 19 -65 -29 -72 -67 -113 -152 -114
-232 0 -37 5 -66 12 -71 6 -4 11 -31 11 -64 -1 -54 -2 -57 -22 -51 -12 4 -27
14 -33 22 -6 9 -18 13 -28 9 -12 -5 -16 0 -16 18 0 16 -6 25 -15 25 -8 0 -15
-4 -15 -10 0 -5 -5 -10 -11 -10 -6 0 -9 7 -6 15 4 8 2 17 -4 21 -6 4 -6 11 2
20 10 12 9 13 -5 8 -11 -4 -16 -14 -13 -25 3 -11 1 -19 -4 -19 -5 0 -9 -10
-10 -22 0 -22 -1 -22 -11 2 -6 14 -10 33 -9 43 3 20 -9 22 -28 5 -11 -10 -13
-10 -7 0 4 6 4 12 -1 12 -4 0 -9 16 -11 36 -3 49 -12 61 -29 39 -7 -11 -13
-14 -13 -8 0 7 4 14 9 17 11 7 2 46 -10 46 -5 0 -9 17 -9 38 -1 30 -3 34 -11
19 -5 -9 -7 -22 -4 -27 3 -6 1 -10 -5 -10 -7 0 -9 -8 -4 -22 4 -13 6 -38 5
-56 -1 -21 2 -31 9 -27 5 3 10 1 10 -5 0 -6 5 -8 12 -4 8 5 9 2 5 -10 -4 -10
-7 -22 -7 -27 0 -5 -4 -9 -10 -9 -5 0 -7 8 -4 18 4 13 3 13 -7 -2 -9 -15 -9
-21 -1 -24 7 -2 12 -19 12 -38 0 -20 5 -34 12 -34 9 0 9 -3 0 -12 -8 -8 -8
-15 -1 -24 14 -17 14 -81 1 -97 -6 -7 -7 -18 -2 -26 4 -8 6 -20 3 -27 -7 -18
23 -127 49 -176 12 -24 21 -47 20 -52 -2 -4 8 -18 20 -30 13 -11 23 -28 23
-36 0 -8 5 -14 11 -13 6 1 10 -8 9 -20 -2 -26 31 -74 57 -83 10 -3 18 -11 18
-18 0 -8 7 -19 15 -26 22 -18 83 -96 68 -87 -9 6 -11 3 -7 -7 3 -9 10 -16 14
-16 4 0 23 -30 41 -66 36 -73 73 -114 104 -114 22 -1 65 -50 43 -50 -9 0 -9
-3 2 -10 8 -5 24 -10 35 -10 20 1 20 1 1 15 -16 12 -17 15 -4 15 9 0 21 -14
28 -30 10 -24 17 -29 34 -25 16 5 18 4 6 -4 -12 -8 -10 -12 10 -19 18 -7 29
-6 41 4 14 13 18 12 29 -1 7 -8 17 -15 22 -15 5 0 16 -7 24 -15 9 -8 25 -15
37 -15 26 -1 69 -29 46 -31 -8 -1 2 -5 21 -9 22 -6 37 -5 41 2 10 16 40 1 33
-15 -3 -10 4 -17 22 -21 15 -4 33 -14 38 -21 6 -8 39 -17 76 -21 36 -3 68 -8
72 -10 4 -3 13 2 20 9 11 12 16 12 36 -1 22 -15 23 -14 16 11 -5 23 -3 27 14
27 11 0 27 6 34 13 7 8 19 12 26 9 21 -7 72 19 72 36 0 8 3 13 6 9 3 -3 19 -1
36 5 21 8 26 13 17 19 -16 10 34 24 56 15 9 -3 19 3 26 17 12 21 11 21 -6 7
-13 -11 -19 -12 -22 -3 -2 7 -11 9 -19 6 -8 -3 -14 0 -14 5 0 6 11 9 25 6 14
-2 25 -1 25 4 0 5 11 14 25 20 15 7 25 8 25 2 0 -6 -5 -10 -12 -10 -6 0 -9 -2
-6 -5 12 -12 58 7 56 23 -2 8 3 17 10 19 8 3 10 -1 5 -13 -6 -16 -2 -15 30 5
20 12 41 20 47 16 6 -3 10 4 10 17 0 24 33 61 44 51 3 -4 6 -1 6 5 0 7 7 12
15 12 8 0 15 5 15 11 0 5 4 8 8 5 12 -7 60 37 55 51 -3 7 7 25 21 40 14 15 26
33 26 40 0 7 3 13 8 13 21 0 174 220 177 255 0 6 11 30 25 55 26 49 27 51 29
81 0 11 6 17 11 14 9 -6 14 8 11 28 -1 4 5 10 14 13 8 3 17 21 21 40 3 19 10
34 14 34 4 0 10 41 12 90 1 50 8 94 13 98 13 9 19 39 17 77 -1 17 -2 47 -3 67
-1 23 -6 35 -12 31 -6 -3 -4 3 4 15 16 22 14 92 -2 92 -5 0 -9 10 -9 22 0 21
1 21 13 3 10 -12 16 -14 21 -7 4 7 3 12 -2 12 -6 0 -9 18 -8 39 1 22 -2 37 -7
34 -5 -3 -6 4 -2 17 5 17 4 20 -5 15 -10 -6 -11 -1 -6 18 5 21 3 25 -9 21 -8
-4 -15 -2 -15 4 0 6 -3 19 -6 29 -6 17 -6 17 8 0 25 -33 36 1 40 131 4 114 -2
152 -16 100z m-971 -219 c11 -17 2 -18 -19 -3 -17 12 -17 14 -4 14 9 0 20 -5
23 -11z m912 -151 c-3 -8 -6 -5 -6 6 -1 11 2 17 5 13 3 -3 4 -12 1 -19z
m-1051 -23 c36 2 72 9 80 16 9 8 14 8 14 1 0 -11 65 -10 76 1 4 3 17 -1 30
-10 13 -8 24 -11 24 -7 0 5 6 2 13 -7 16 -21 52 -29 87 -19 22 6 32 4 42 -7
10 -13 8 -19 -17 -39 -17 -13 -38 -24 -47 -24 -10 0 -18 -5 -18 -11 0 -10 54
-6 102 7 19 5 34 -42 23 -75 -8 -26 12 -22 61 11 22 15 48 28 59 30 11 2 23 8
27 13 10 13 9 -36 -1 -97 -4 -26 -5 -45 -2 -43 4 2 7 -13 9 -33 4 -78 7 -97
20 -110 10 -11 9 -16 -2 -28 -8 -8 -20 -14 -26 -14 -6 0 -9 -4 -6 -9 3 -5 -4
-11 -16 -14 -12 -4 -19 -9 -15 -13 8 -9 -12 -36 -23 -29 -14 9 -5 -40 10 -52
19 -15 5 -17 -21 -2 -19 10 -19 9 -9 -10 11 -21 4 -27 -24 -22 -5 1 -6 -7 -3
-19 3 -11 1 -20 -5 -20 -6 0 -8 -6 -5 -14 4 -9 -4 -17 -21 -22 l-27 -7 25 -7
c14 -5 20 -8 13 -9 -7 -1 -10 -8 -6 -17 5 -13 2 -15 -13 -10 -22 6 -38 -2 -47
-24 -3 -9 -6 -4 -6 11 -1 15 -7 29 -14 32 -10 4 -13 -2 -9 -18 2 -12 -1 -26
-7 -29 -6 -4 -11 -2 -11 5 0 8 -4 8 -15 -1 -12 -10 -16 -9 -21 4 -5 13 -9 12
-24 -7 l-18 -22 -23 20 c-13 12 -19 14 -14 5 7 -13 6 -13 -7 -2 -11 8 -18 9
-22 3 -5 -7 -15 -7 -32 -1 -39 15 -61 12 -67 -10 -6 -22 -26 -27 -28 -7 -5 46
-4 75 2 71 5 -2 13 6 20 18 13 24 59 68 72 68 4 0 7 5 7 11 0 5 -4 8 -9 5 -4
-3 -6 6 -3 19 3 16 0 25 -9 25 -7 0 -10 3 -6 6 12 13 -21 33 -47 28 -14 -2
-26 -1 -26 3 0 5 -38 9 -85 11 -66 3 -85 1 -85 -10 0 -10 -2 -10 -9 1 -7 11
-13 12 -23 4 -7 -6 -28 -14 -46 -18 -37 -8 -61 -39 -37 -49 8 -3 15 -17 15
-32 0 -31 30 -72 48 -66 7 2 19 -4 26 -14 10 -13 21 -16 44 -11 18 4 32 3 32
-1 0 -22 -27 -62 -42 -62 -9 0 -20 -9 -23 -20 -4 -14 -15 -20 -36 -20 -20 0
-28 4 -23 11 4 7 1 10 -7 7 -8 -3 -20 2 -27 11 -10 12 -15 13 -18 4 -8 -18
-25 -16 -18 1 4 11 0 13 -18 9 -13 -3 -28 -10 -34 -15 -8 -5 -10 -1 -9 16 3
22 -1 24 -42 24 -58 2 -83 10 -83 28 0 8 -9 14 -21 14 -18 0 -19 2 -9 15 11
13 8 15 -20 15 -28 0 -31 2 -20 15 7 8 9 15 5 15 -4 0 -2 6 4 13 14 18 5 26
-20 20 -16 -5 -18 -8 -7 -14 10 -7 9 -9 -4 -9 -20 0 -23 11 -7 27 14 14 2 53
-17 53 -8 0 -13 4 -10 9 3 5 15 7 26 4 14 -4 20 0 20 11 0 9 -6 13 -15 10 -17
-7 -49 21 -40 36 3 5 -1 20 -8 32 -19 30 -15 207 5 219 17 11 45 3 82 -23 16
-11 44 -23 63 -25 34 -5 35 -4 28 25 -8 40 9 72 40 72 13 0 26 4 30 9 3 6 -9
7 -30 4 -26 -4 -36 -2 -41 11 -3 9 -12 16 -19 16 -20 0 -35 24 -25 40 9 15 23
19 93 24 27 2 51 7 54 10 4 3 17 6 30 6 14 0 23 6 23 15 0 15 4 15 108 18 15
0 38 8 52 18 21 15 26 15 33 3 6 -10 24 -12 73 -9z m730 -202 c-3 9 -2 17 3
17 5 0 11 -17 13 -37 3 -28 2 -33 -6 -20 -9 14 -12 13 -27 -9 -20 -32 -30 -13
-17 35 9 32 10 32 24 15 14 -17 15 -17 10 -1z m-1651 -93 c3 -5 1 -10 -4 -10
-6 0 -11 5 -11 10 0 6 2 10 4 10 3 0 8 -4 11 -10z m2018 -30 c-3 -12 -8 -19
-11 -16 -5 6 5 36 12 36 2 0 2 -9 -1 -20z m-68 -145 l7 -30 -16 29 c-18 31
-22 56 -7 41 5 -6 13 -23 16 -40z m-2055 5 c0 -5 -4 -10 -9 -10 -6 0 -13 5
-16 10 -3 6 1 10 9 10 9 0 16 -4 16 -10z m30 -77 c-11 -17 -11 -17 -6 0 3 10
6 24 7 30 0 9 2 9 5 0 3 -7 0 -20 -6 -30z m2020 23 c0 -3 -4 -8 -10 -11 -5 -3
-10 -1 -10 4 0 6 5 11 10 11 6 0 10 -2 10 -4z m-1009 -188 c5 -54 -13 -104
-32 -92 -5 3 -9 0 -9 -6 0 -6 -4 -8 -10 -5 -8 5 -8 33 -1 77 2 11 32 38 42 38
5 0 9 -6 10 -12z m-73 -17 c-7 -11 -16 -17 -20 -14 -10 5 10 33 23 33 5 0 4
-9 -3 -19z m242 -61 c0 -5 -2 -10 -4 -10 -3 0 -8 5 -11 10 -3 6 -1 10 4 10 6
0 11 -4 11 -10z"/>
<path d="M6935 11400 c-3 -5 -1 -10 4 -10 6 0 11 5 11 10 0 6 -2 10 -4 10 -3
0 -8 -4 -11 -10z"/>
<path d="M6343 11355 c0 -8 4 -15 9 -15 4 0 8 4 8 9 0 6 -4 12 -8 15 -5 3 -9
-1 -9 -9z"/>
<path d="M6470 11360 c0 -5 5 -10 11 -10 5 0 7 5 4 10 -3 6 -8 10 -11 10 -2 0
-4 -4 -4 -10z"/>
<path d="M6909 11284 c-18 -22 2 -39 34 -28 l25 9 -23 17 c-20 16 -24 16 -36
2z"/>
<path d="M6990 11280 c0 -5 5 -10 10 -10 6 0 10 5 10 10 0 6 -4 10 -10 10 -5
0 -10 -4 -10 -10z"/>
<path d="M6380 11242 c0 -14 41 -26 67 -19 11 3 6 5 -12 6 -17 0 -36 6 -43 13
-9 9 -12 9 -12 0z"/>
<path d="M6810 10986 c0 -6 3 -21 6 -33 6 -21 8 -21 29 -7 18 12 24 12 28 2 3
-7 5 -4 4 8 -1 11 -6 25 -11 30 -15 13 -56 13 -56 0z"/>
<path d="M5472 11838 c-14 -14 -16 -47 -4 -65 6 -9 13 -3 26 18 16 27 16 33 4
45 -11 11 -16 12 -26 2z"/>
<path d="M6850 11699 c0 -5 5 -7 10 -4 6 3 10 8 10 11 0 2 -4 4 -10 4 -5 0
-10 -5 -10 -11z"/>
<path d="M6608 11693 c7 -3 16 -2 19 1 4 3 -2 6 -13 5 -11 0 -14 -3 -6 -6z"/>
<path d="M5580 11575 c0 -16 5 -37 10 -45 7 -12 10 -8 10 15 0 17 -5 37 -10
45 -7 12 -10 8 -10 -15z"/>
<path d="M3143 11448 c21 -7 32 -7 40 1 8 8 0 11 -28 10 -40 -1 -40 -1 -12
-11z"/>
<path d="M4125 11390 c-3 -5 -1 -10 4 -10 6 0 11 5 11 10 0 6 -2 10 -4 10 -3
0 -8 -4 -11 -10z"/>
<path d="M7955 11221 c-3 -11 -20 -32 -36 -46 -31 -25 -19 -36 13 -11 18 13
42 65 34 73 -2 3 -7 -5 -11 -16z"/>
<path d="M5453 11170 c0 -25 2 -35 4 -22 2 12 2 32 0 45 -2 12 -4 2 -4 -23z"/>
<path d="M7838 11173 c7 -3 16 -2 19 1 4 3 -2 6 -13 5 -11 0 -14 -3 -6 -6z"/>
<path d="M9878 11095 c-36 -11 -77 -28 -91 -37 -15 -10 -43 -18 -62 -18 -27 0
-44 -8 -67 -30 -38 -38 -54 -47 -112 -60 -50 -11 -95 -50 -96 -84 0 -22 -38
-86 -51 -86 -5 0 -9 -13 -9 -29 0 -17 -5 -33 -10 -36 -6 -4 -1 -15 14 -26 29
-23 36 -24 36 -3 0 8 4 13 9 10 5 -3 14 1 21 9 7 9 21 13 31 10 12 -4 19 1 24
15 5 15 12 19 31 14 16 -4 26 -1 29 8 8 21 105 18 105 -3 0 -9 -6 -22 -14 -29
-8 -6 -16 -21 -18 -33 -2 -14 -11 -23 -25 -25 -13 -2 -23 -8 -23 -13 0 -6 -5
-7 -10 -4 -6 4 -8 11 -5 16 8 12 -21 23 -36 13 -8 -5 -4 -13 12 -25 l24 -19
-35 6 c-19 3 -30 2 -25 -3 17 -13 16 -65 -1 -59 -8 3 -14 -1 -14 -9 0 -9 6
-12 18 -8 16 6 16 5 0 -13 -16 -19 -16 -20 2 -20 11 0 20 4 20 9 0 5 10 5 21
2 19 -6 21 -4 17 13 -4 12 0 23 7 26 18 7 25 -3 16 -23 -5 -9 -15 -29 -22 -44
-11 -23 -14 -25 -19 -12 -5 15 -9 13 -24 -11 -11 -16 -26 -37 -35 -46 -31 -33
-37 -44 -33 -56 2 -6 -3 -12 -10 -12 -13 0 -36 -19 -66 -55 -7 -8 -10 -15 -6
-15 3 0 -8 -16 -25 -35 -24 -27 -31 -45 -31 -75 0 -22 -5 -40 -11 -40 -6 0 -8
-9 -4 -20 4 -11 2 -20 -4 -20 -6 0 -11 -7 -11 -15 0 -9 -7 -18 -15 -21 -8 -4
-15 -14 -15 -24 0 -29 -11 -50 -25 -50 -8 0 -18 -21 -24 -50 -6 -28 -18 -64
-26 -79 -8 -16 -11 -32 -7 -35 3 -4 -1 -4 -11 0 -13 4 -17 1 -17 -15 0 -12 -5
-21 -10 -21 -29 0 -26 -112 4 -149 9 -11 7 -13 -12 -7 -15 5 -22 3 -22 -6 0
-8 -16 -22 -35 -31 -28 -13 -35 -22 -35 -46 0 -21 -6 -32 -20 -36 -22 -7 -26
-20 -10 -30 6 -3 10 -1 10 6 0 7 3 9 7 6 3 -4 -2 -16 -12 -27 -10 -11 -13 -20
-7 -20 15 0 16 -36 2 -45 -5 -3 -10 -15 -10 -26 0 -10 -4 -19 -9 -19 -5 0 -12
-7 -15 -16 -3 -8 -2 -12 4 -9 6 3 10 -5 10 -18 0 -13 8 -31 18 -39 33 -29 224
-98 271 -98 52 0 109 -17 302 -88 75 -28 166 -56 203 -63 80 -14 156 -60 241
-148 38 -40 63 -57 73 -54 9 4 13 2 9 -4 -4 -6 1 -18 11 -26 16 -15 18 -15 19
4 1 12 -2 17 -10 13 -7 -4 -9 -4 -5 1 4 4 3 14 -3 22 -7 8 -8 13 -1 13 5 0 17
-15 25 -32 13 -26 17 -29 22 -16 4 9 4 21 1 27 -4 5 -2 12 3 15 5 4 13 1 16
-5 4 -5 13 -8 21 -5 9 3 14 -2 14 -14 0 -26 -3 -36 -12 -33 -4 2 -5 -4 -2 -12
8 -19 -1 -19 -20 1 -9 9 -16 11 -16 4 0 -6 -4 -8 -10 -5 -5 3 -10 1 -10 -4 0
-6 3 -11 8 -11 8 0 42 -57 42 -71 0 -6 11 -22 25 -37 25 -27 37 -19 13 8 -11
12 -10 12 5 1 13 -10 20 -11 31 -2 11 9 15 7 19 -9 3 -11 0 -23 -5 -27 -7 -4
-8 -1 -3 7 5 9 4 11 -3 6 -18 -11 -14 -33 6 -34 9 0 28 5 41 11 19 9 25 9 28
0 5 -15 23 -17 23 -3 0 5 -11 12 -25 16 -35 9 -31 31 5 36 29 4 57 -12 43 -25
-3 -4 9 -7 27 -7 31 0 32 -1 15 -14 -18 -13 -18 -14 0 -23 12 -7 16 -17 12
-32 -3 -11 -2 -19 2 -16 4 2 8 -9 8 -25 0 -17 -4 -30 -9 -30 -9 0 -4 -42 7
-60 4 -6 1 -9 -7 -8 -7 2 -12 -5 -11 -16 1 -13 -2 -15 -10 -7 -8 8 -8 14 1 23
13 13 16 29 5 27 -27 -4 -35 1 -23 16 15 18 -1 20 -18 3 -9 -9 -12 -2 -12 32
0 48 -11 48 -17 -2 -4 -35 22 -72 45 -63 10 3 12 0 8 -10 -3 -9 12 -38 38 -73
24 -31 58 -82 76 -112 17 -30 47 -80 66 -110 32 -52 43 -105 36 -190 -1 -22
-30 -200 -37 -235 -4 -16 -2 -49 3 -73 6 -24 6 -44 1 -48 -5 -3 -9 -13 -9 -23
0 -10 -7 -24 -15 -31 -35 -29 -58 -103 -62 -194 -10 -290 -3 -667 17 -886 5
-58 12 -184 15 -280 4 -106 13 -212 25 -270 25 -129 48 -275 61 -395 6 -55 15
-129 20 -165 17 -120 22 -373 10 -570 -6 -107 -14 -240 -17 -295 -6 -133 -11
-166 -39 -260 -14 -44 -29 -102 -35 -130 -38 -185 -172 -594 -250 -760 -20
-44 -53 -94 -71 -112 -31 -29 -144 -90 -229 -123 -19 -8 -56 -27 -81 -42 -34
-20 -59 -28 -94 -28 -27 0 -45 3 -42 6 11 11 111 43 119 38 4 -3 5 1 2 9 -3
10 5 16 26 21 19 3 29 10 25 17 -4 6 2 13 14 16 19 5 26 20 22 50 -1 7 4 13
11 13 16 0 38 65 31 91 -6 23 -41 25 -68 5 -12 -8 -32 -12 -51 -9 -19 3 -46
-2 -72 -15 -39 -19 -80 -29 -151 -37 -58 -7 -84 -14 -136 -35 -11 -4 -47 -13
-80 -20 -33 -7 -71 -18 -85 -25 -14 -6 -56 -13 -94 -14 -90 -2 -184 -17 -203
-33 -8 -7 -22 -13 -31 -14 -9 -2 -26 -5 -38 -8 -17 -5 -23 -1 -26 19 -4 20 -1
24 21 27 14 2 25 9 23 16 -1 6 5 12 13 12 8 0 15 -4 15 -10 0 -13 40 -13 60 0
12 7 7 12 -23 25 -41 17 -47 30 -18 40 10 3 21 15 24 25 3 13 14 20 30 20 17
0 28 7 32 20 3 11 18 22 33 26 15 3 34 10 42 15 8 5 31 16 50 25 19 8 49 22
67 30 17 8 34 14 38 14 17 0 135 64 151 81 9 10 21 19 26 19 14 0 122 54 126
63 2 4 10 7 17 7 8 0 16 4 19 9 8 13 -61 6 -77 -8 -8 -6 -17 -8 -21 -4 -4 4
-10 3 -14 -2 -10 -15 -124 -85 -137 -85 -3 0 -5 7 -5 15 0 19 -15 19 -32 1
-10 -10 -17 -11 -31 -2 -14 9 -20 8 -27 -4 -6 -10 -10 -11 -10 -2 0 6 -7 12
-15 12 -18 0 -86 -31 -103 -48 -7 -6 -20 -13 -28 -13 -15 -2 -29 -5 -41 -9 -5
-2 -12 -4 -18 -5 -5 0 -54 -22 -107 -48 -54 -26 -103 -47 -109 -47 -6 0 -36
-13 -67 -30 -163 -84 -280 -112 -489 -114 -79 0 -143 -4 -143 -8 0 -4 -26 -10
-57 -14 -32 -3 -66 -11 -76 -16 -10 -5 -49 -11 -85 -13 -68 -3 -254 -51 -260
-67 -2 -4 -9 -5 -15 -1 -7 5 -28 8 -47 9 -52 1 -142 14 -165 24 -36 15 -79 23
-123 21 -24 -2 -49 2 -56 8 -8 6 -33 11 -57 10 -24 -1 -108 4 -187 11 -79 7
-145 10 -148 7 -3 -3 -6 -12 -8 -20 -1 -8 -10 -27 -20 -42 l-18 -28 26 5 c19
4 29 0 37 -13 7 -15 6 -19 -6 -19 -8 0 -15 -5 -15 -10 0 -6 -10 -8 -23 -5 -15
4 -28 1 -36 -8 -15 -19 18 -29 119 -33 41 -2 109 -8 150 -13 41 -6 81 -10 88
-11 7 0 10 -5 7 -10 -4 -6 -11 -8 -16 -4 -6 3 -13 -3 -16 -15 -6 -25 -23 -28
-23 -3 0 15 -2 15 -10 2 -9 -13 -12 -13 -24 3 -16 20 -56 23 -56 3 0 -8 -11
-17 -25 -20 -14 -4 -23 -10 -21 -15 8 -12 -16 -30 -39 -30 -100 0 -135 -3
-135 -11 0 -6 6 -10 13 -10 8 0 21 -8 30 -18 23 -25 4 -42 -44 -42 -21 0 -41
-4 -44 -10 -3 -5 -21 -10 -40 -10 -19 0 -36 -4 -40 -9 -8 -13 25 -43 41 -37 7
3 16 0 20 -6 9 -14 -120 -4 -221 16 -294 61 -854 122 -976 107 -59 -8 -98 -6
-194 10 -66 10 -151 24 -190 30 -165 27 -365 97 -443 157 -40 30 -92 100 -92
123 0 21 28 51 41 44 5 -4 9 -1 9 4 0 6 7 11 15 11 8 0 15 7 15 15 0 9 9 15
23 14 21 0 21 -1 2 -9 -16 -7 -13 -9 16 -9 20 -1 42 5 48 13 6 7 33 19 59 26
26 7 54 19 62 25 8 7 37 20 64 29 26 9 58 22 70 28 11 7 25 11 29 10 4 -1 21
5 37 13 16 8 46 15 66 15 51 0 164 35 164 51 0 5 6 9 14 9 8 0 17 6 20 13 5 9
7 9 12 0 8 -18 42 6 37 26 -2 10 11 25 37 41 22 14 43 32 45 41 3 9 16 20 28
23 18 5 20 8 7 16 -8 5 -10 10 -4 10 6 0 18 -7 25 -17 11 -13 11 -17 2 -20 -7
-3 -13 -12 -13 -20 0 -9 6 -13 15 -9 11 4 15 -2 15 -24 0 -20 5 -30 15 -30 8
0 12 6 9 13 -2 7 2 21 10 32 13 17 15 18 16 3 0 -10 7 -16 18 -15 10 0 39 -10
66 -22 44 -22 52 -23 103 -11 51 11 61 10 139 -15 47 -15 91 -33 99 -41 11
-12 51 -14 210 -12 107 2 195 6 195 10 0 4 6 5 14 2 22 -9 94 33 109 64 19 38
11 60 -26 70 -32 8 -188 1 -397 -18 -316 -30 -397 -25 -395 23 0 12 4 28 8 35
5 7 5 21 2 33 -9 28 -10 127 -1 136 8 8 27 13 76 19 19 3 71 16 115 29 44 13
109 31 145 41 36 10 95 30 131 46 37 15 99 32 139 39 84 13 141 34 137 52 -1
6 3 11 9 10 7 -1 11 9 10 22 0 14 -4 25 -7 25 -4 0 -71 -15 -150 -34 -79 -18
-209 -45 -289 -60 -169 -32 -211 -48 -244 -90 -73 -95 -112 -122 -256 -178
-357 -138 -517 -180 -539 -141 -7 14 -3 24 20 45 33 32 35 38 12 38 -23 0 -53
29 -46 46 3 9 -1 14 -12 14 -11 0 -15 -5 -11 -15 3 -9 0 -15 -9 -15 -8 0 -14
5 -13 11 2 6 -7 13 -19 15 -13 2 -23 -1 -23 -6 0 -6 5 -10 10 -10 6 0 10 -7
10 -15 0 -11 7 -14 25 -9 14 3 25 2 25 -2 -1 -13 -41 -40 -70 -47 -19 -5 -26
-14 -28 -33 -1 -15 -7 -33 -13 -40 -15 -19 -49 -18 -49 1 0 11 -5 12 -26 5
-37 -15 -54 -12 -54 8 0 14 -2 15 -10 2 -15 -24 -12 -30 16 -30 35 0 21 -18
-21 -26 -24 -4 -39 -2 -50 9 -9 9 -11 17 -4 19 6 2 7 12 3 23 -8 19 -9 18 -14
-5 -4 -14 -3 -33 2 -43 7 -13 3 -19 -17 -27 -15 -6 -32 -10 -38 -10 -7 0 -43
-12 -82 -26 -102 -38 -270 -63 -360 -54 l-20 1 20 8 c19 8 19 8 -2 15 -25 8
-30 22 -10 29 6 2 -7 4 -29 3 -23 0 -54 6 -69 14 -23 12 -27 12 -35 0 -8 -12
-10 -12 -10 -1 0 8 -7 11 -20 8 -14 -3 -29 3 -45 19 -13 13 -31 24 -39 24 -8
0 -16 6 -18 12 -3 7 -18 11 -38 10 -18 -1 -37 3 -41 9 -4 6 -12 8 -19 4 -8 -5
-7 -12 5 -25 14 -15 14 -18 1 -23 -8 -3 -17 -1 -20 6 -5 9 -7 9 -12 0 -3 -7
-23 -13 -45 -13 -21 0 -39 -4 -39 -9 0 -5 -14 -4 -30 2 -17 7 -30 19 -30 29 0
20 -24 29 -65 23 -16 -2 -39 -4 -49 -4 -18 -1 -18 -2 -3 -19 24 -26 22 -30
-20 -34 -26 -2 -38 -8 -38 -18 0 -16 45 -16 75 0 18 10 48 -18 74 -68 9 -17
21 -32 27 -32 6 0 7 4 4 10 -3 5 -2 10 3 10 12 0 24 -29 16 -41 -3 -5 3 -8 13
-6 31 4 29 -18 -3 -24 -16 -3 -28 -10 -27 -16 3 -14 -14 -11 -54 9 -28 14 -35
14 -58 2 -37 -19 -36 -20 -33 28 3 34 0 43 -16 46 -10 2 -16 0 -12 -6 3 -5
-14 -12 -40 -15 -26 -2 -50 -10 -53 -16 -5 -7 -17 -8 -37 -2 -16 4 -35 6 -43
3 -10 -3 -12 1 -8 14 18 59 19 64 8 64 -6 0 -11 -3 -11 -8 0 -4 -19 -7 -43 -6
-23 1 -53 -1 -67 -4 -24 -5 -24 -6 10 -21 53 -25 110 -65 110 -78 0 -6 7 -19
16 -27 14 -15 14 -16 0 -16 -9 0 -16 5 -16 10 0 6 -4 10 -10 10 -5 0 -10 -8
-10 -17 0 -13 -3 -14 -8 -6 -5 7 -26 13 -48 12 -21 0 -76 2 -122 4 -46 2 -85
0 -88 -5 -3 -4 -41 -8 -85 -8 -68 0 -79 2 -79 18 -1 16 -1 16 -11 -1 -13 -22
-4 -37 24 -37 35 0 67 -11 61 -21 -3 -5 14 -10 38 -11 39 -1 40 -2 9 -5 -19
-3 -44 0 -55 6 -12 5 -36 12 -55 14 -28 3 -31 2 -18 -8 16 -11 58 -142 106
-325 12 -47 40 -139 62 -205 55 -168 97 -309 113 -380 20 -87 51 -199 80 -290
14 -43 31 -105 37 -137 10 -52 23 -77 34 -66 2 2 13 51 25 108 33 162 48 223
97 385 64 212 73 249 83 345 5 47 17 144 27 215 12 85 17 173 15 256 l-4 126
43 11 c50 13 78 0 58 -24 -7 -9 -8 -14 -1 -14 5 0 8 -8 5 -18 -2 -10 2 -23 9
-30 11 -9 17 -2 27 36 17 59 28 72 57 72 29 0 29 1 3 -75 -12 -37 -16 -61 -9
-63 5 -2 3 -10 -6 -19 -8 -9 -13 -24 -11 -35 3 -10 1 -16 -3 -13 -22 14 -24
-134 -3 -168 4 -7 6 -22 5 -34 -2 -12 1 -31 7 -42 8 -13 8 -20 0 -23 -7 -2 -7
-18 1 -52 6 -27 8 -56 5 -64 -3 -8 4 -24 15 -35 12 -10 19 -22 15 -25 -3 -4
-10 0 -15 8 -11 19 -22 8 -14 -14 3 -9 16 -17 28 -17 16 -1 17 -2 4 -6 -24 -6
-23 -23 2 -23 27 0 25 -20 -2 -28 l-23 -6 24 -6 c24 -5 51 -60 30 -60 -5 0 -8
-17 -5 -37 3 -21 5 -43 5 -49 1 -6 15 -14 32 -18 22 -4 34 -14 42 -36 11 -30
27 -34 68 -16 9 4 20 6 25 5 17 -5 127 23 157 40 34 19 33 17 192 461 97 270
147 399 129 330 -3 -14 -7 -46 -9 -71 -1 -26 -5 -51 -8 -56 -6 -10 -28 -156
-32 -221 l-3 -42 91 2 91 3 22 -33 c20 -29 23 -30 28 -14 8 23 112 102 135
102 20 0 43 -25 61 -66 9 -20 29 -38 59 -52 25 -12 74 -37 109 -56 35 -19 69
-33 76 -30 7 3 43 -11 81 -31 93 -48 111 -47 136 12 24 57 34 64 74 57 17 -3
39 -7 50 -9 11 -2 26 -4 33 -4 6 -1 12 -7 12 -15 0 -33 226 -37 266 -5 8 7 14
2 17 -13 9 -36 -1 -966 -12 -1133 -6 -83 -13 -222 -16 -310 -12 -340 -48 -801
-84 -1075 -6 -41 -11 -78 -11 -82 0 -5 276 -8 614 -8 580 0 614 1 610 18 -3
16 -17 343 -30 702 -2 85 -9 207 -15 270 -5 63 -12 158 -15 210 -2 52 -12 219
-20 370 -20 361 -17 946 6 960 8 6 22 7 30 4 60 -25 96 -33 166 -35 43 -1 82
-7 86 -12 4 -7 12 -6 23 3 12 10 19 11 23 3 6 -10 154 -25 231 -23 14 0 27 -4
31 -10 3 -5 21 -10 40 -10 19 0 46 -1 60 -1 14 -1 45 -2 70 -3 25 0 48 -5 53
-11 4 -6 11 -4 17 5 8 13 10 12 10 -2 0 -10 5 -18 11 -18 7 0 9 -48 7 -151 -3
-145 -2 -149 14 -127 10 13 22 28 28 35 5 7 10 16 10 21 0 4 35 8 78 7 42 0
80 4 84 10 5 6 8 5 8 -2 0 -7 7 -13 15 -13 8 0 15 4 15 10 0 5 11 9 25 8 16
-2 24 -7 21 -15 -7 -17 16 -17 33 -1 10 11 15 9 26 -5 7 -10 16 -18 19 -17 3
1 40 -1 81 -5 51 -5 79 -4 89 4 7 6 20 9 28 6 9 -4 22 1 31 9 20 20 31 20 23
1 -3 -8 -3 -15 0 -15 8 0 58 34 67 45 5 6 11 4 17 -7 9 -15 13 -15 40 -1 17 8
30 19 30 24 0 5 11 9 25 9 14 0 33 9 42 20 10 11 23 20 30 20 7 0 13 5 13 10
0 6 11 10 25 10 16 0 25 6 25 15 0 8 7 15 16 15 9 0 27 11 39 24 13 14 26 22
29 19 3 -3 12 -1 19 5 8 7 16 9 19 6 3 -3 9 7 12 23 6 20 10 23 16 13 7 -11
14 -12 35 -2 14 7 35 12 45 12 11 0 20 4 20 9 0 5 9 11 21 14 12 3 18 10 14
16 -3 6 5 15 18 20 15 6 26 20 29 36 5 24 3 26 -21 20 -19 -4 -22 -3 -11 5 8
5 26 10 40 10 24 1 24 1 -5 15 -26 12 -27 13 -8 14 15 1 21 7 20 21 -1 11 -6
20 -12 21 -5 1 1 5 15 9 21 7 22 8 5 9 -11 1 -27 6 -35 12 -13 9 -12 10 3 5
27 -9 50 3 36 20 -9 11 -8 18 2 30 15 18 13 62 -3 81 -5 7 -7 26 -3 42 4 18 0
48 -9 76 -18 51 -21 89 -7 81 5 -3 12 1 15 10 10 25 24 7 31 -39 11 -74 94
-445 125 -557 10 -36 21 -82 24 -103 4 -20 11 -37 16 -37 6 0 10 -15 11 -32
l1 -33 12 29 c14 30 30 21 20 -11 -5 -14 -4 -15 4 -4 8 11 11 10 15 -5 2 -10
5 4 6 31 1 32 4 45 10 37 6 -10 10 -7 13 12 3 14 1 23 -3 20 -5 -3 -9 4 -9 16
0 12 4 18 10 15 16 -10 10 206 -6 225 -7 9 -16 51 -19 94 -3 44 -9 84 -14 90
-10 13 -20 99 -26 226 -3 77 -2 89 6 60 19 -61 29 -81 38 -76 5 4 12 0 15 -6
3 -7 2 6 -1 30 l-6 42 37 0 c39 0 47 13 19 29 -23 12 -16 19 27 25 19 3 29 3
23 0 -7 -3 -13 -20 -13 -39 0 -18 -6 -48 -14 -66 -16 -40 -30 -141 -17 -120 7
11 10 11 15 0 3 -8 3 -4 0 9 -3 13 -1 22 6 22 7 0 10 6 7 14 -3 7 -1 18 5 24
6 6 12 27 13 46 2 20 10 50 19 67 9 18 16 38 16 46 0 8 5 11 10 8 9 -5 14 7
11 27 0 4 8 10 19 13 12 4 45 -8 93 -34 40 -23 76 -38 79 -35 10 10 64 -243
98 -461 12 -77 31 -194 42 -260 11 -66 24 -142 28 -170 5 -27 15 -90 24 -138
52 -290 38 -562 -39 -792 -18 -55 -45 -143 -59 -195 -14 -52 -41 -140 -60
-195 -34 -99 -34 -101 -26 -210 11 -145 20 -380 20 -532 l0 -123 753 0 c803 0
812 1 891 50 61 37 114 107 136 178 20 63 20 95 20 2961 l0 2897 -29 17 c-17
10 -33 27 -37 40 -3 12 -12 36 -19 52 -45 103 -71 382 -45 477 14 50 53 94 95
108 l35 12 0 988 c0 816 -2 990 -13 997 -8 4 -16 19 -20 32 -4 18 -1 24 14 28
19 5 19 18 19 525 -1 427 -3 520 -14 524 -8 3 -19 26 -26 52 -7 26 -17 51 -21
57 -5 5 -9 18 -9 28 0 10 -9 32 -20 47 -11 16 -20 32 -19 37 1 4 -6 26 -16 48
-18 38 -25 118 -15 160 4 15 -1 20 -24 25 -22 4 -35 16 -52 50 -29 56 -38 81
-35 99 1 7 -2 10 -8 7 -5 -4 -12 3 -16 14 -3 11 -12 20 -20 20 -7 0 -15 3 -17
8 -4 9 -91 52 -105 52 -6 0 -16 7 -23 15 -7 8 -21 15 -31 15 -11 0 -19 7 -20
18 0 10 -3 12 -6 5 -2 -7 -11 -13 -19 -13 -8 0 -11 6 -8 15 5 11 -1 15 -18 15
-14 0 -28 3 -32 8 -4 4 -24 12 -44 17 -26 8 -38 17 -40 32 -3 23 8 29 68 36
14 1 31 6 38 11 7 4 19 3 26 -4 11 -8 15 -8 19 2 4 10 6 10 6 1 1 -7 8 -13 17
-13 8 0 12 5 9 10 -3 6 1 10 9 10 33 0 14 26 -32 43 -26 10 -54 23 -62 28 -8
5 -31 16 -50 24 -19 9 -43 20 -52 25 -32 18 -87 8 -91 -16 -1 -5 -16 -10 -33
-11 -33 -2 -74 30 -123 96 -20 27 -30 32 -54 28 -18 -2 -31 1 -34 9 -2 7 -18
16 -34 19 -16 4 -29 11 -29 16 0 5 -11 14 -24 19 -33 12 -116 21 -116 12 0 -4
-16 -7 -35 -8 -23 0 -35 4 -35 13 0 14 -5 15 -72 16 -24 1 -47 7 -53 13 -13
15 -65 24 -65 12 0 -5 -6 -6 -12 -1 -24 14 -125 8 -190 -12z m859 -372 c40
-18 42 -23 46 -78 1 -22 6 -45 9 -51 4 -6 8 -28 10 -50 1 -23 16 -64 37 -98
51 -89 71 -151 77 -248 6 -84 5 -88 -16 -96 -19 -7 -20 -9 -6 -21 9 -8 16 -22
16 -32 0 -11 4 -19 10 -19 23 0 31 -51 35 -217 3 -158 -2 -229 -22 -283 -3 -8
-7 -22 -8 -30 -13 -104 -49 -173 -132 -257 -35 -34 -63 -66 -63 -70 0 -3 -29
-34 -65 -68 -75 -72 -132 -95 -186 -76 -18 6 -46 11 -63 11 -17 0 -42 6 -57
13 -14 8 -34 12 -45 10 -51 -8 -148 -5 -152 5 -2 7 -9 12 -16 12 -18 0 -126
107 -126 124 0 8 -6 19 -13 23 -8 4 -22 20 -32 36 -9 15 -23 27 -29 27 -7 0
-22 17 -35 38 -55 89 -65 108 -70 127 -11 40 -6 361 6 386 6 13 17 42 24 63 6
22 20 49 30 60 23 24 23 30 4 50 -8 8 -18 35 -21 60 l-7 46 47 20 c48 22 57
34 30 44 -23 9 -11 75 32 173 8 17 14 34 14 38 0 4 15 24 33 45 18 21 39 55
46 77 17 47 42 82 59 83 6 0 12 4 12 10 0 5 12 12 28 16 15 3 36 10 47 14 47
21 116 33 196 35 70 1 91 5 116 23 17 12 40 22 51 22 12 0 24 5 27 10 10 16
83 12 122 -7z m133 -13 c0 -5 -2 -10 -4 -10 -3 0 -8 5 -11 10 -3 6 -1 10 4 10
6 0 11 -4 11 -10z m-439 -1862 c31 -9 37 -14 28 -25 -9 -10 -8 -13 4 -13 8 0
17 6 19 12 3 7 7 2 10 -10 4 -12 3 -20 -2 -17 -4 3 -11 -11 -14 -30 -5 -26
-12 -35 -24 -33 -10 2 -21 -7 -27 -19 -6 -14 -17 -21 -30 -20 -25 3 -38 19
-22 29 8 5 5 8 -9 8 -37 0 -74 24 -74 48 0 12 5 22 10 22 6 0 11 8 11 18 1 16
2 16 6 0 5 -20 24 -25 21 -6 -2 7 7 14 20 16 12 2 22 10 22 18 0 17 2 17 51 2z
m-148 -67 c-5 -34 -8 -40 -15 -26 -12 20 0 92 12 79 5 -5 6 -29 3 -53z m-36
-43 c-3 -8 -6 -5 -6 6 -1 11 2 17 5 13 3 -3 4 -12 1 -19z m73 -23 c0 -8 -10
-19 -21 -26 -17 -9 -20 -8 -16 3 2 7 10 12 16 11 6 -2 11 4 11 12 0 8 2 15 5
15 3 0 5 -7 5 -15z m-58 -17 c-7 -7 -12 -8 -12 -2 0 14 12 26 19 19 2 -3 -1
-11 -7 -17z m245 -160 c-3 -7 -5 -2 -5 12 0 14 2 19 5 13 2 -7 2 -19 0 -25z
m831 -1285 c7 -12 18 -15 46 -10 28 4 36 2 36 -10 0 -9 6 -13 15 -9 9 3 19 -3
26 -16 10 -18 9 -20 -5 -15 -10 4 -16 1 -16 -7 0 -8 10 -17 23 -20 l22 -7 -23
-9 c-14 -6 -20 -15 -16 -21 4 -6 3 -10 -2 -8 -5 2 -26 11 -46 19 -21 8 -38 20
-38 27 0 7 -7 10 -17 6 -12 -5 -15 -2 -10 10 4 12 1 17 -11 18 -16 1 -16 2 1
6 24 6 21 29 -4 36 -12 3 -18 10 -14 16 9 16 23 13 33 -6z m112 -153 c0 -5 -2
-10 -4 -10 -3 0 -8 5 -11 10 -3 6 -1 10 4 10 6 0 11 -4 11 -10z m-7485 -3650
c-3 -5 -10 -10 -16 -10 -5 0 -9 5 -9 10 0 6 7 10 16 10 8 0 12 -4 9 -10z m42
4 c-3 -3 -12 -4 -19 -1 -8 3 -5 6 6 6 11 1 17 -2 13 -5z m-7 -45 c0 -4 -7 -6
-15 -3 -8 4 -15 10 -15 15 0 4 7 6 15 3 8 -4 15 -10 15 -15z m0 -56 c-8 -3
-22 -11 -30 -17 -13 -10 -13 -9 -1 7 7 9 21 17 30 16 13 0 14 -1 1 -6z m-397
-100 c-7 -2 -21 -2 -30 0 -10 3 -4 5 12 5 17 0 24 -2 18 -5z m-283 -27 c0 -2
-9 -6 -20 -9 -11 -3 -18 -1 -14 4 5 9 34 13 34 5z m-65 -16 c-28 -12 -47 -12
-40 0 3 6 18 10 33 9 24 0 25 -1 7 -9z m5785 -110 c0 -5 -5 -10 -11 -10 -5 0
-7 5 -4 10 3 6 8 10 11 10 2 0 4 -4 4 -10z m-1802 -76 c2 -1 -8 -10 -21 -19
-23 -15 -28 -15 -55 -1 -16 8 -32 12 -36 9 -3 -4 -6 -1 -6 5 0 6 10 12 23 14
21 4 88 -2 95 -8z m1062 -74 c0 -12 -53 4 -58 18 -3 9 4 9 27 1 17 -6 31 -15
31 -19z m757 -142 c-3 -8 -6 -5 -6 6 -1 11 2 17 5 13 3 -3 4 -12 1 -19z
m-1260 -320 c-3 -8 -6 -5 -6 6 -1 11 2 17 5 13 3 -3 4 -12 1 -19z m-3777 -82
c0 -2 -7 -7 -16 -10 -8 -3 -12 -2 -9 4 6 10 25 14 25 6z m7376 -762 c45 -11
44 -82 -1 -102 -14 -7 -34 -12 -45 -12 -20 0 -70 53 -70 74 0 25 52 58 78 50
8 -2 25 -7 38 -10z m-374 -1090 c12 -41 2 -71 -29 -87 -22 -12 -30 -12 -54 0
-24 12 -29 21 -29 51 0 41 7 54 34 69 31 17 69 1 78 -33z"/>
<path d="M10560 10118 c-87 -42 -125 -49 -177 -35 -23 6 -45 9 -48 6 -2 -3 -9
-30 -15 -60 -6 -30 -23 -73 -40 -97 -17 -23 -30 -49 -30 -57 0 -7 -5 -17 -10
-20 -6 -4 -8 -11 -5 -16 4 -5 0 -9 -8 -9 -21 0 -31 -32 -14 -45 7 -5 12 -16
10 -22 -6 -18 5 -16 25 4 17 16 20 22 62 103 13 25 32 52 42 61 10 9 18 21 18
27 0 18 49 26 76 12 13 -7 27 -22 30 -34 9 -29 29 -46 53 -46 18 0 21 6 21 38
0 28 8 47 26 68 14 16 41 53 60 82 19 28 40 52 47 53 13 1 -31 17 -48 17 -5 0
-39 -13 -75 -30z"/>
<path d="M9993 9549 c-3 -11 -12 -19 -20 -19 -12 0 -13 -3 -4 -13 6 -8 8 -17
4 -20 -3 -4 1 -7 10 -7 9 0 24 -13 33 -29 10 -17 21 -28 25 -26 4 3 9 -2 13
-10 3 -8 12 -15 21 -15 8 0 15 -4 15 -10 0 -5 11 -10 24 -10 29 0 56 38 56 79
0 26 -7 33 -57 57 -32 15 -60 29 -63 33 -12 15 -53 8 -57 -10z"/>
<path d="M10728 9510 c-79 -14 -103 -30 -106 -73 -2 -23 1 -37 8 -37 7 0 10
-7 7 -15 -4 -8 -2 -17 3 -20 12 -7 80 26 80 39 0 6 14 20 30 31 16 11 30 26
30 33 0 6 6 12 13 12 6 0 4 5 -6 11 -9 6 -15 14 -12 20 4 5 5 8 3 8 -2 -1 -24
-5 -50 -9z"/>
<path d="M10310 8776 c0 -10 9 -16 21 -16 24 0 21 23 -4 28 -10 2 -17 -3 -17
-12z"/>
<path d="M3305 11071 c-16 -4 -29 -12 -28 -19 2 -6 -6 -16 -17 -22 -11 -6 -20
-17 -20 -25 0 -8 -9 -15 -20 -15 -11 0 -20 -4 -20 -10 0 -5 7 -7 15 -4 8 4 21
1 29 -5 11 -9 15 -8 20 5 3 9 13 14 21 10 8 -3 17 -1 20 4 3 5 12 7 19 4 18
-7 30 27 14 38 -10 6 -10 8 0 8 6 0 12 9 12 20 0 11 -3 19 -7 19 -5 -1 -21 -4
-38 -8z"/>
<path d="M3066 11015 c4 -22 2 -41 -6 -50 -8 -10 -9 -15 -2 -15 6 0 14 5 18
11 3 6 17 9 30 6 17 -3 24 0 24 12 0 13 2 13 9 2 7 -11 10 -11 16 0 6 9 10 8
16 -7 7 -18 8 -18 8 2 1 11 7 26 14 33 10 11 10 13 0 7 -8 -4 -13 -2 -13 6 0
9 -3 9 -10 -2 -8 -13 -10 -12 -10 3 0 19 -20 24 -20 5 0 -9 -3 -9 -9 1 -5 8
-16 11 -25 8 -8 -3 -18 -2 -21 3 -14 23 -26 8 -19 -25z"/>
<path d="M5563 10993 c9 -2 23 -2 30 0 6 3 -1 5 -18 5 -16 0 -22 -2 -12 -5z"/>
<path d="M5548 10973 c6 -2 18 -2 25 0 6 3 1 5 -13 5 -14 0 -19 -2 -12 -5z"/>
<path d="M2917 10935 c-19 -18 -22 -35 -7 -35 6 0 10 -7 10 -15 0 -11 8 -13
30 -10 17 3 44 7 60 10 26 4 30 2 30 -19 0 -21 6 -24 40 -28 22 -2 40 1 40 5
0 5 7 4 15 -3 21 -17 70 3 61 25 -3 9 1 15 10 15 10 0 14 -6 11 -15 -4 -8 -2
-17 4 -21 13 -8 40 16 32 29 -4 6 2 8 15 5 14 -4 20 -2 16 4 -4 5 -19 7 -35 4
-15 -3 -31 -1 -35 5 -4 7 -10 6 -19 -1 -8 -7 -24 -9 -37 -5 -19 5 -20 4 -8 -5
12 -10 12 -11 -5 -5 -11 4 -37 8 -57 7 -37 0 -54 21 -25 31 6 2 9 7 6 11 -4 4
-13 1 -20 -6 -8 -7 -26 -14 -41 -15 -29 -1 -37 11 -15 21 6 3 0 4 -16 2 -17
-2 -31 2 -36 11 -7 13 -10 12 -24 -2z m160 -71 c-3 -3 -12 -4 -19 -1 -8 3 -5
6 6 6 11 1 17 -2 13 -5z"/>
<path d="M2968 10863 c6 -2 18 -2 25 0 6 3 1 5 -13 5 -14 0 -19 -2 -12 -5z"/>
<path d="M2025 10751 c-6 -11 9 -23 19 -14 9 9 7 23 -3 23 -6 0 -12 -4 -16 -9z"/>
<path d="M5622 10736 c4 -5 3 -19 -2 -32 -12 -31 3 -39 26 -12 17 19 17 21 2
15 -12 -4 -15 -2 -12 7 3 8 -1 17 -8 22 -7 4 -10 4 -6 0z"/>
<path d="M9523 10724 c4 -4 2 -13 -4 -20 -8 -9 -5 -11 10 -7 25 7 27 19 4 27
-10 4 -14 4 -10 0z"/>
<path d="M9475 10700 c-3 -5 -1 -10 4 -10 6 0 11 5 11 10 0 6 -2 10 -4 10 -3
0 -8 -4 -11 -10z"/>
<path d="M5615 10560 c-3 -5 -1 -10 4 -10 6 0 11 5 11 10 0 6 -2 10 -4 10 -3
0 -8 -4 -11 -10z"/>
<path d="M2023 10424 l-53 -24 0 -57 c0 -88 40 -448 60 -543 6 -25 12 -78 15
-118 5 -69 10 -116 20 -172 2 -14 7 -43 10 -65 2 -22 9 -71 15 -110 6 -38 15
-110 20 -160 6 -49 15 -115 21 -145 5 -30 12 -80 15 -110 2 -30 7 -71 11 -90
3 -19 12 -84 19 -145 7 -60 18 -137 24 -170 5 -33 14 -112 20 -175 6 -63 14
-135 19 -160 10 -50 38 -205 47 -260 8 -53 32 -189 43 -245 5 -27 14 -102 20
-165 7 -63 20 -169 31 -235 10 -66 21 -146 24 -177 5 -56 28 -118 44 -118 13
0 12 -44 -2 -60 -7 -8 -16 -32 -19 -54 -6 -37 -4 -40 69 -110 65 -60 84 -73
128 -81 50 -11 51 -11 50 -47 -1 -20 -7 -43 -15 -50 -23 -22 -74 -6 -120 36
-43 38 -43 38 -74 21 -80 -44 -185 -230 -210 -372 -11 -63 -11 -79 4 -119 15
-44 15 -46 -4 -60 -11 -8 -29 -12 -40 -9 -11 3 -67 15 -125 26 -217 41 -316
61 -342 71 -15 5 -32 7 -37 3 -7 -3 -11 -42 -11 -90 0 -108 18 -138 115 -191
39 -21 72 -40 75 -44 3 -3 21 -12 40 -19 19 -7 49 -19 65 -26 17 -7 40 -16 53
-20 12 -3 22 -11 22 -16 0 -5 8 -9 18 -9 31 -1 70 -40 39 -40 -7 0 -23 -9 -35
-20 -12 -11 -27 -19 -33 -18 -6 2 -14 -3 -16 -9 -3 -8 4 -13 19 -14 l23 0 -22
-9 c-30 -12 -29 -30 0 -30 28 0 37 -7 31 -24 -3 -8 -15 -11 -28 -9 -30 6 -46
-16 -17 -24 11 -3 18 -9 15 -14 -3 -5 -14 -4 -25 2 -11 6 -27 8 -34 5 -8 -3
-15 0 -17 6 -7 19 -30 -3 -25 -23 6 -21 -8 -26 -16 -6 -4 7 -6 6 -6 -4 -1 -26
24 -41 74 -42 35 -2 45 -6 45 -19 0 -10 5 -18 11 -18 5 0 8 -4 5 -9 -3 -5 7
-11 23 -14 23 -5 28 -10 24 -25 -3 -14 2 -22 19 -27 23 -8 23 -8 -4 -12 -24
-4 -26 -7 -16 -23 16 -25 5 -35 -21 -20 -15 7 -27 8 -39 1 -15 -10 -15 -11 6
-17 24 -7 28 -19 10 -30 -7 -4 -8 -3 -4 4 4 7 1 12 -7 12 -10 0 -13 -7 -10
-19 6 -25 -26 -70 -51 -71 -13 0 -16 -5 -12 -17 4 -9 1 -20 -6 -25 -10 -6 -10
-10 2 -18 13 -8 12 -10 -2 -10 -21 0 -24 -16 -5 -23 14 -5 17 -64 4 -84 -5 -7
-4 -13 2 -13 14 0 24 -39 13 -53 -13 -17 -6 -145 9 -163 17 -21 11 -23 -44
-17 -37 5 -51 11 -57 27 -13 37 -30 115 -30 144 0 15 -21 115 -46 222 -25 107
-49 226 -51 265 -3 38 -11 79 -18 90 -7 11 -27 67 -45 125 -32 101 -78 205
-125 279 -51 82 -154 291 -175 356 -12 39 -26 75 -31 80 -4 6 -31 58 -59 115
-106 215 -249 389 -403 488 -187 121 -457 184 -582 136 -22 -9 -71 -20 -108
-24 -53 -7 -81 -17 -122 -44 -29 -20 -60 -36 -68 -36 -49 0 -47 12 -47 -375 0
-264 3 -366 12 -371 6 -4 8 -3 5 3 -7 10 41 58 50 50 2 -3 19 0 36 7 27 11 55
12 125 4 6 -1 12 -5 12 -9 0 -6 41 -17 80 -21 8 -1 21 -7 28 -15 7 -7 24 -13
38 -13 13 0 24 -4 24 -9 0 -5 10 -11 23 -15 27 -7 87 -57 87 -74 0 -7 7 -12
15 -12 8 0 15 -6 15 -13 0 -8 18 -22 39 -33 22 -10 37 -22 35 -26 -3 -5 -1 -8
5 -8 5 0 11 6 13 12 3 8 9 4 17 -10 12 -23 7 -47 -9 -37 -4 3 -14 -2 -21 -11
-7 -9 -47 -35 -88 -59 -42 -24 -101 -67 -131 -94 -30 -28 -59 -51 -63 -51 -5
0 -5 -5 -2 -10 4 -6 1 -17 -5 -25 -6 -8 -9 -19 -6 -24 4 -5 -3 -16 -14 -24
-18 -12 -18 -15 -5 -20 10 -4 15 -1 15 10 0 13 3 14 12 5 8 -8 8 -15 0 -25
-16 -19 -4 -28 26 -20 17 4 23 2 18 -6 -4 -6 -2 -11 4 -11 19 0 57 -34 52 -48
-2 -7 5 -12 17 -12 13 0 21 -6 21 -17 0 -14 2 -15 9 -5 7 11 9 11 14 -2 8 -20
79 -56 111 -56 14 0 28 -5 32 -11 9 -15 95 -5 108 13 6 8 20 20 31 26 11 6 14
12 8 12 -7 0 -13 5 -13 11 0 6 7 8 16 5 12 -4 15 -2 10 9 -3 8 0 14 6 12 7 -1
14 7 16 18 5 24 31 55 46 55 6 0 34 18 63 40 29 21 55 35 58 31 3 -5 13 -7 23
-4 10 2 29 -7 45 -21 16 -14 31 -26 34 -26 11 0 73 -74 73 -87 0 -8 8 -28 17
-46 9 -18 18 -43 20 -57 8 -68 15 -90 31 -100 11 -6 13 -12 6 -17 -15 -11 -13
-43 3 -43 7 0 13 -7 13 -15 0 -8 4 -15 9 -15 10 0 19 -35 23 -94 2 -34 0 -40
-19 -42 -12 -2 -28 -5 -35 -6 -7 -2 -12 2 -11 8 1 7 -6 19 -16 28 -18 17 -18
60 1 72 5 3 -1 14 -13 25 -12 10 -26 16 -31 13 -6 -4 -5 -10 3 -15 11 -7 10
-9 -3 -9 -10 0 -18 4 -18 8 0 4 -21 14 -46 21 -37 11 -57 12 -96 2 -27 -6 -54
-9 -59 -5 -5 3 -12 -2 -15 -11 -4 -9 -13 -14 -21 -11 -8 3 -18 -4 -25 -20 -11
-23 -16 -25 -47 -19 -20 4 -38 11 -39 16 -2 5 -8 7 -13 4 -5 -4 -28 7 -51 23
-37 25 -82 46 -98 45 -3 -1 -14 6 -25 13 -11 8 -27 14 -37 14 -10 0 -18 3 -18
8 0 4 -14 7 -31 8 -26 1 -30 -2 -26 -18 4 -13 1 -18 -7 -15 -6 3 -13 -4 -13
-14 -1 -10 3 -19 8 -19 6 0 15 -14 21 -31 8 -25 15 -30 37 -27 20 2 27 -2 29
-18 2 -17 -2 -21 -27 -22 -17 0 -41 -8 -53 -16 -12 -9 -30 -16 -40 -16 -10 0
-18 -4 -18 -9 0 -9 -8 -12 -63 -30 -31 -10 -57 -5 -57 11 0 5 -7 16 -15 24
-20 20 -20 48 0 40 8 -3 15 -1 15 4 0 6 -5 10 -11 10 -5 0 -7 6 -3 12 5 7 8
24 8 38 0 20 -6 26 -27 28 -22 3 -31 -4 -55 -41 -28 -45 -66 -129 -86 -190 -3
-10 -10 -16 -15 -12 -6 3 -14 -2 -19 -11 -8 -14 -13 -14 -32 -4 -18 10 -24 9
-31 -1 -8 -12 -10 -12 -18 0 -28 44 -31 -13 -31 -794 0 -437 3 -795 7 -795 4
0 16 9 28 20 11 11 48 29 80 40 54 18 61 18 72 4 11 -15 15 -14 39 5 15 12 34
31 43 43 16 24 23 60 9 52 -8 -5 -72 29 -111 60 -16 12 -16 19 -7 57 10 39 7
61 -25 186 -44 179 -44 181 -2 185 17 2 32 8 32 15 0 6 3 15 7 19 5 4 8 0 8
-9 0 -9 4 -17 9 -17 6 0 47 -35 91 -78 86 -81 184 -155 235 -176 66 -28 105
-76 139 -171 13 -33 30 -253 31 -377 0 -105 2 -118 22 -140 12 -12 31 -49 43
-82 40 -105 158 -298 220 -356 53 -51 96 -86 137 -112 51 -34 55 -30 73 82 13
79 71 245 117 335 9 17 22 44 30 60 8 17 18 37 24 45 28 45 33 73 33 195 1
109 -3 143 -23 206 -26 85 -25 120 4 264 25 129 39 158 83 177 57 25 80 46 64
56 -15 10 -14 59 1 80 15 19 47 14 67 -10 15 -19 29 -23 72 -24 64 -1 150 -40
186 -85 l23 -29 -33 -20 c-46 -28 -85 -33 -167 -23 -52 7 -81 6 -107 -3 -39
-13 -84 -51 -84 -70 0 -15 25 -25 45 -18 8 4 33 -1 54 -10 65 -26 157 -30 230
-11 35 9 75 14 89 10 19 -5 23 -3 19 9 -3 8 -9 31 -13 50 -6 34 -4 37 24 47
19 6 35 22 43 42 8 18 28 48 47 69 31 34 33 41 30 94 -4 82 4 85 144 49 131
-33 258 -80 341 -125 32 -18 61 -30 64 -27 5 6 -36 165 -98 384 -16 56 -38
143 -49 195 -19 96 -23 126 -40 338 -6 69 -12 143 -15 165 -2 22 -7 78 -11
125 -3 47 -7 96 -10 110 -2 14 -6 45 -10 70 -4 25 -11 51 -16 57 -14 18 28
116 79 184 59 78 98 188 114 318 9 79 13 89 64 160 30 42 71 103 91 136 20 33
58 92 84 130 85 127 110 179 110 227 0 41 -12 65 -32 67 -5 1 -30 1 -57 1 -48
0 -50 1 -71 45 -23 47 -60 181 -60 219 -1 11 -10 46 -20 76 -19 51 -34 143
-45 282 -3 32 -17 104 -30 161 -14 58 -27 122 -29 143 -17 167 -35 315 -39
321 -3 5 -8 40 -11 78 -3 39 -8 97 -11 130 -7 82 -27 185 -63 335 -22 86 -49
249 -82 485 -11 72 -26 171 -35 220 -9 50 -18 104 -20 120 -9 69 -52 322 -85
490 -10 55 -29 161 -40 235 -32 204 -64 380 -70 379 -3 0 -29 -11 -57 -25z
m-1190 -4490 c14 -5 17 -13 12 -33 -4 -14 -7 -27 -8 -27 -21 -16 -73 -34 -97
-34 -16 0 -30 -4 -30 -10 0 -5 -5 -10 -10 -10 -6 0 -28 -8 -49 -18 -23 -11
-51 -17 -69 -14 l-31 4 16 34 c13 26 33 42 91 70 76 38 129 55 147 48 6 -2 18
-7 28 -10z m447 -789 c0 -14 -4 -25 -8 -25 -7 0 -8 31 -3 48 4 11 11 -3 11
-23z m-990 -5 c0 -5 -7 -10 -16 -10 -8 0 -12 5 -9 10 3 6 10 10 16 10 5 0 9
-4 9 -10z m490 -8 c0 -10 5 -23 10 -28 15 -15 -11 -63 -35 -66 -11 -2 -35 -1
-52 1 -28 3 -33 7 -33 30 0 33 10 48 35 53 11 1 26 9 33 16 19 18 42 15 42 -6z
m460 8 c0 -5 -4 -10 -9 -10 -6 0 -13 5 -16 10 -3 6 1 10 9 10 9 0 16 -4 16
-10z m10 -45 c0 -14 -4 -25 -9 -25 -5 0 -11 11 -13 25 -4 17 -1 25 8 25 8 0
14 -11 14 -25z m-1004 -137 c-5 8 1 12 19 12 15 0 24 -4 20 -10 -3 -6 1 -7 9
-4 10 4 16 1 16 -9 0 -9 2 -21 3 -29 2 -7 2 -10 0 -5 -9 15 -23 6 -23 -15 0
-17 -3 -19 -9 -9 -5 7 -14 10 -20 7 -6 -4 -9 -11 -6 -16 3 -4 -4 -6 -15 -3
-20 5 -35 36 -25 52 3 5 0 13 -6 17 -8 5 -7 9 2 15 8 4 20 3 28 -4 12 -9 13
-9 7 1z m-76 -768 c0 -6 -9 -2 -20 7 -11 10 -20 19 -20 21 0 1 9 -2 20 -8 11
-6 20 -15 20 -20z m701 -877 c0 -5 2 -16 4 -25 4 -22 -11 -23 -32 -2 -14 13
-14 17 -2 25 17 11 29 11 30 2z"/>
<path d="M5630 10430 c0 -5 5 -10 10 -10 6 0 10 5 10 10 0 6 -4 10 -10 10 -5
0 -10 -4 -10 -10z"/>
<path d="M5 10420 c-3 -5 1 -10 10 -10 9 0 13 5 10 10 -3 6 -8 10 -10 10 -2 0
-7 -4 -10 -10z"/>
<path d="M4150 10416 c0 -9 7 -50 15 -91 9 -40 15 -77 14 -82 -1 -4 3 -21 10
-38 20 -49 41 -163 48 -259 3 -50 12 -106 19 -125 8 -18 14 -62 14 -96 0 -34
7 -82 16 -106 29 -83 61 -340 68 -542 2 -54 6 -101 9 -103 6 -7 65 23 89 44
20 17 20 19 -9 257 -8 72 -21 157 -29 190 -7 33 -18 122 -24 199 -6 76 -16
150 -22 165 -12 29 -18 57 -43 181 -16 87 -95 315 -124 360 -9 14 -24 34 -33
44 -16 18 -18 18 -18 2z"/>
<path d="M5615 10399 c-11 -17 1 -21 15 -4 8 9 8 15 2 15 -6 0 -14 -5 -17 -11z"/>
<path d="M5635 10360 c-3 -5 -1 -10 4 -10 6 0 11 5 11 10 0 6 -2 10 -4 10 -3
0 -8 -4 -11 -10z"/>
<path d="M5611 10148 c-1 -84 -5 -156 -7 -160 -8 -13 10 -9 74 17 34 14 85 30
113 36 43 9 50 14 46 30 -3 10 -1 19 5 19 5 0 7 12 3 30 -4 18 -3 30 4 30 17
0 0 30 -18 31 -10 0 -11 2 -3 6 6 2 12 11 12 18 0 7 -6 16 -12 18 -10 4 -10 6
0 6 9 1 8 7 -5 24 l-17 23 -23 -25 c-13 -14 -23 -21 -22 -16 3 24 -2 33 -18
30 -14 -2 -17 -11 -16 -39 3 -43 -3 -46 -19 -8 l-12 27 -3 -26 c-3 -21 -8 -26
-24 -22 -22 6 -25 19 -6 26 7 4 6 6 -4 6 -18 1 -48 31 -31 31 5 0 8 9 5 20
-13 49 -19 9 -22 -132z"/>
<path d="M6 10093 c-3 -4 -6 -80 -6 -171 0 -146 2 -163 15 -152 11 10 12 16 4
26 -9 10 -6 16 13 25 21 9 52 65 53 94 0 6 5 13 10 18 7 4 6 10 0 15 -10 6
-14 25 -18 75 -1 9 -7 17 -14 17 -7 0 -13 8 -13 18 0 18 -34 45 -44 35z"/>
<path d="M9261 10034 c0 -11 3 -14 6 -6 3 7 2 16 -1 19 -3 4 -6 -2 -5 -13z"/>
<path d="M7750 9860 c0 -5 23 -33 51 -62 27 -28 53 -64 56 -79 3 -16 9 -26 14
-23 15 9 37 -56 32 -95 -12 -103 -50 -244 -64 -235 -5 3 -9 -1 -9 -9 0 -60
-363 -278 -570 -343 -260 -80 -487 -124 -645 -124 -152 0 -382 56 -450 110
-42 33 -57 38 -49 15 4 -8 1 -15 -5 -15 -6 0 -11 5 -11 10 0 6 -3 9 -7 8 -5 0
-16 2 -26 7 -14 6 -16 10 -6 16 7 4 19 3 26 -3 9 -7 13 -7 13 1 0 6 -5 11 -10
11 -6 0 -23 12 -38 28 -15 15 -45 40 -66 56 -29 22 -35 31 -25 37 10 6 7 9
-11 10 -14 0 -20 3 -14 5 12 5 8 41 -7 60 -5 6 -12 32 -15 58 -4 25 -12 46
-18 46 -7 0 -7 3 1 8 9 6 9 18 -3 52 -24 68 -21 192 5 264 26 72 26 72 1 79
-13 3 -19 1 -18 -6 2 -7 -11 -32 -28 -57 -17 -25 -36 -59 -43 -77 -7 -17 -19
-34 -27 -37 -17 -7 -17 -8 1 44 13 38 21 93 9 63 -3 -7 -11 -10 -19 -7 -17 7
-55 -34 -55 -58 0 -11 -4 -16 -10 -13 -5 3 -10 -1 -10 -9 0 -9 -5 -16 -11 -16
-6 0 -9 -6 -6 -14 3 -7 2 -17 -3 -22 -5 -5 -10 -31 -11 -57 -2 -30 -9 -53 -19
-60 -8 -7 -26 -45 -39 -85 -23 -72 -23 -76 -10 -180 15 -115 16 -524 2 -852
-12 -261 10 -992 36 -1255 6 -55 18 -190 26 -300 9 -110 21 -225 26 -255 10
-54 27 -210 49 -440 25 -278 51 -537 55 -556 4 -20 6 -20 87 -7 46 7 119 18
163 23 44 6 123 17 175 25 164 25 532 74 613 81 l77 6 15 -36 c8 -19 15 -46
14 -58 0 -18 -3 -16 -13 12 -12 32 -13 24 -19 -100 -6 -129 15 -415 43 -580
32 -193 50 -291 55 -300 3 -5 22 2 42 15 39 27 108 34 116 13 3 -9 14 -4 34
15 18 17 61 38 104 52 41 12 99 32 129 45 38 15 65 19 88 15 23 -4 41 -1 58
10 41 26 235 102 318 124 94 25 126 43 126 74 0 18 -2 19 -10 7 -5 -8 -10 -11
-10 -6 0 5 -6 3 -14 -3 -25 -21 -78 -32 -93 -19 -11 9 -21 8 -43 -5 -24 -15
-29 -15 -40 -2 -7 8 -21 15 -31 15 -10 0 -21 5 -24 10 -4 6 -21 8 -41 4 -29
-5 -34 -3 -34 12 0 14 -2 16 -9 6 -6 -11 -14 -8 -35 13 -14 14 -26 32 -26 40
0 17 -36 38 -50 30 -6 -3 -10 -2 -10 3 0 6 11 13 25 16 39 10 30 25 -11 19
-25 -4 -39 -2 -45 8 -7 11 -9 8 -9 -8 0 -13 -4 -23 -10 -23 -5 0 -10 4 -10 9
0 11 -58 10 -75 -1 -16 -10 -59 -12 -79 -3 -11 5 -26 3 -37 -3 -23 -14 -32
-15 -24 -3 6 10 -1 13 -82 31 -29 6 -57 18 -64 26 -6 8 -21 14 -33 14 -30 0
-49 15 -51 41 -1 14 5 23 17 27 15 4 17 7 6 13 -9 6 -7 9 10 9 15 0 22 6 22
20 0 24 32 27 50 5 7 -8 22 -15 34 -15 20 1 20 2 4 14 -10 7 -18 18 -18 25 0
6 -8 11 -17 12 -13 0 -14 2 -4 6 8 3 20 -2 27 -12 16 -21 34 -12 27 15 -4 14
0 20 12 20 9 0 19 -9 22 -20 3 -11 9 -17 14 -14 5 3 9 -3 10 -13 0 -12 5 -9
14 12 9 19 14 23 15 13 0 -14 8 -17 39 -15 22 1 43 5 46 9 11 10 44 -24 38
-38 -8 -22 8 -16 32 12 13 16 36 28 55 30 41 5 50 11 50 35 0 14 6 19 18 17 9
-2 17 -8 17 -15 0 -6 3 -15 8 -19 4 -4 7 5 7 19 0 17 5 27 15 27 8 0 15 -6 15
-14 0 -15 36 -32 95 -43 67 -12 85 -21 85 -39 0 -8 5 -14 10 -14 6 0 10 4 10
9 0 10 55 9 66 -2 4 -4 15 -7 25 -7 10 0 30 -11 46 -24 35 -29 63 -44 95 -50
21 -3 48 17 159 114 113 101 152 128 255 182 130 66 141 79 124 137 l-8 26 -1
-27 c-1 -16 -5 -28 -11 -28 -5 0 -10 -7 -10 -15 0 -8 -13 -16 -32 -20 -18 -3
-60 -9 -93 -15 -33 -5 -87 -14 -120 -20 -33 -5 -84 -13 -114 -16 -53 -6 -53
-5 -48 18 5 17 1 27 -14 36 -11 7 -25 10 -31 6 -7 -4 -5 -10 6 -16 19 -11 21
-32 3 -47 -20 -16 -86 -24 -102 -11 -14 12 -107 15 -172 6 -24 -3 -43 -2 -43
3 0 4 -12 6 -27 4 -51 -8 -137 -3 -144 9 -6 9 -11 9 -22 0 -7 -7 -17 -9 -20
-6 -4 4 -23 8 -44 11 -21 2 -45 6 -53 10 -22 9 -27 10 -54 12 -14 0 -32 8 -40
17 -9 8 -20 13 -26 9 -15 -10 -80 -17 -157 -19 -39 0 -75 -4 -79 -8 -4 -5 -19
-8 -34 -8 -19 0 -27 5 -27 18 -1 17 23 125 52 232 8 30 25 102 39 160 14 58
43 179 65 270 21 91 44 185 49 210 5 25 31 124 57 220 141 530 180 679 240
915 72 283 135 516 196 723 129 437 160 536 191 602 11 25 26 61 33 80 15 42
128 271 156 317 18 29 19 39 9 105 -5 40 -16 116 -24 168 -18 121 -29 147 -71
154 -17 4 -49 22 -71 42 -42 39 -110 85 -187 127 -51 29 -67 33 -67 17z
m-2010 -305 c0 -8 -4 -15 -10 -15 -5 0 -7 7 -4 15 4 8 8 15 10 15 2 0 4 -7 4
-15z m1777 -4261 c-3 -3 -12 -4 -19 -1 -8 3 -5 6 6 6 11 1 17 -2 13 -5z m-491
-178 c3 -8 4 -24 2 -36 -3 -21 -4 -20 -36 8 -29 26 -31 31 -15 35 33 9 44 7
49 -7z m84 -35 c0 -6 -4 -13 -10 -16 -5 -3 -10 1 -10 9 0 9 5 16 10 16 6 0 10
-4 10 -9z"/>
<path d="M5851 9744 c0 -11 3 -14 6 -6 3 7 2 16 -1 19 -3 4 -6 -2 -5 -13z"/>
<path d="M5631 9518 c-1 -16 4 -28 9 -28 12 0 12 8 0 35 -8 18 -9 17 -9 -7z"/>
<path d="M1610 8780 c-22 -13 -10 -160 16 -194 12 -16 18 -18 39 -8 20 9 25
19 25 49 -1 21 -7 49 -15 63 -8 14 -14 34 -15 45 0 26 -33 55 -50 45z"/>
<path d="M10364 8591 c20 -22 26 -25 26 -13 0 4 -10 13 -22 21 -23 14 -23 14
-4 -8z"/>
<path d="M10317 8594 c-8 -8 18 -34 33 -34 6 0 8 -5 5 -10 -7 -11 11 -40 24
-40 3 0 6 11 6 24 0 13 -3 22 -7 20 -4 -2 -13 4 -20 14 -16 23 -33 33 -41 26z"/>
<path d="M8845 7476 c-8 -39 2 -96 16 -96 12 0 12 117 0 125 -6 3 -13 -10 -16
-29z"/>
<path d="M4480 7007 c0 -20 5 -39 11 -42 7 -5 8 5 3 32 -9 51 -14 54 -14 10z"/>
<path d="M4495 6878 c12 -128 33 -266 34 -225 2 67 -21 282 -31 292 -6 6 -7
-17 -3 -67z"/>
<path d="M4082 6298 l-33 -21 23 -12 c13 -6 22 -17 21 -23 -2 -7 4 -12 12 -12
8 0 15 -5 15 -10 0 -7 6 -7 20 0 21 11 21 12 23 -42 1 -16 -8 -25 -33 -35 -34
-13 -34 -13 20 -6 82 10 112 7 122 -10 5 -9 15 -14 23 -11 9 4 15 0 15 -10 0
-8 13 -34 29 -57 17 -25 26 -50 23 -62 -3 -10 1 -23 9 -29 12 -8 12 -9 -1 -5
-14 3 -27 -12 -49 -58 -5 -12 -17 -27 -26 -35 -16 -13 -20 -11 -46 20 -15 19
-33 40 -39 45 -87 81 -135 144 -128 167 4 12 -37 58 -51 58 -5 0 -11 7 -15 15
-3 8 -11 15 -18 15 -8 0 -36 21 -63 48 -40 37 -50 43 -53 30 -4 -23 -8 -22
-39 1 -24 20 -24 20 -70 -5 -25 -13 -60 -24 -77 -25 -23 0 -17 -4 24 -13 30
-6 62 -16 70 -21 8 -5 23 -9 32 -10 10 0 18 -3 18 -7 0 -5 0 -12 0 -18 0 -5
-9 -10 -19 -10 -11 0 -22 -4 -26 -9 -8 -14 14 -24 28 -14 11 8 18 9 44 4 4 0
-2 -7 -13 -15 -30 -22 -12 -27 40 -12 50 15 106 4 106 -21 0 -7 6 -13 14 -13
7 0 42 -30 76 -67 60 -63 62 -67 42 -76 -17 -8 -21 -16 -17 -38 4 -20 -1 -35
-15 -49 -23 -23 -21 -24 14 -10 15 5 26 6 26 0 0 -5 -9 -12 -20 -15 -34 -11
-24 -32 13 -28 l32 4 -30 -14 c-16 -8 -36 -12 -44 -9 -9 3 -12 1 -8 -5 4 -6 1
-14 -5 -16 -7 -3 -1 -6 15 -6 15 -1 27 4 27 9 0 15 29 12 46 -5 14 -13 13 -15
-10 -15 -14 0 -28 -5 -32 -12 -5 -8 2 -9 25 -5 18 4 30 3 27 -2 -3 -5 6 -12
20 -15 14 -4 36 -18 48 -31 13 -14 32 -25 42 -25 14 0 16 -2 6 -9 -20 -12 -11
-44 16 -56 12 -5 22 -15 22 -22 0 -6 6 -14 13 -16 9 -4 8 -8 -3 -16 -10 -7
-11 -11 -2 -11 6 0 12 -6 12 -13 0 -25 75 -50 126 -43 28 3 84 0 137 -9 49 -9
92 -14 95 -11 3 3 -2 14 -12 25 -16 18 -42 78 -71 166 -87 261 -103 291 -236
447 -31 36 -60 76 -64 87 -3 11 -10 20 -15 18 -5 -1 -37 28 -72 65 -73 77
-104 88 -156 56z m286 -417 c-14 -23 -31 -23 -36 2 -2 10 5 17 20 19 31 5 32
4 16 -21z m-57 -59 c-7 -2 -18 1 -23 6 -8 8 -4 9 13 5 13 -4 18 -8 10 -11z
m65 -47 c17 -16 14 -18 -10 -9 -9 3 -16 10 -16 15 0 13 9 11 26 -6z m7 -24
c20 -7 37 -19 37 -26 0 -8 15 -19 34 -26 19 -7 34 -15 33 -18 -1 -3 4 -16 11
-28 7 -13 10 -23 6 -23 -4 0 0 -8 8 -17 8 -10 16 -25 16 -33 0 -8 3 -30 7 -47
7 -31 6 -33 -20 -33 -18 0 -28 6 -32 20 -3 11 -9 17 -14 15 -4 -3 -17 12 -29
35 -11 22 -17 40 -13 40 5 0 0 7 -10 14 -10 8 -18 18 -18 23 1 18 -13 49 -28
60 -14 11 -13 13 9 13 14 1 19 4 10 7 -34 11 -59 27 -65 41 -4 11 -2 12 7 5 7
-6 30 -16 51 -22z m44 13 c-3 -3 -12 -4 -19 -1 -8 3 -5 6 6 6 11 1 17 -2 13
-5z"/>
<path d="M3560 6196 c0 -19 7 -29 24 -36 34 -13 95 -81 96 -105 0 -28 -19 -45
-49 -45 -25 0 -25 -1 7 -17 18 -9 37 -24 43 -35 7 -13 16 -17 34 -12 20 5 27
1 34 -17 10 -26 -2 -49 -25 -49 -8 0 -14 -5 -14 -11 0 -5 4 -8 8 -5 5 3 24 8
43 11 18 3 37 11 41 18 10 17 60 -35 180 -189 5 -8 3 -17 -6 -27 -11 -11 -12
-17 -3 -27 9 -10 9 -14 0 -17 -18 -6 -16 -23 2 -23 8 0 12 -6 9 -13 -3 -8 12
-17 43 -26 27 -8 68 -20 91 -28 24 -8 46 -13 48 -10 7 7 -7 37 -17 37 -5 0 -9
5 -9 11 0 5 -13 24 -29 41 -17 18 -27 38 -23 46 4 11 1 14 -11 9 -12 -4 -19 3
-28 27 -7 19 -25 41 -41 50 -16 10 -36 28 -44 42 -9 13 -22 24 -29 24 -14 0
-138 159 -165 210 -8 16 -20 30 -26 32 -13 3 -111 86 -156 132 l-28 28 0 -26z"/>
<path d="M3718 5903 c7 -3 16 -2 19 1 4 3 -2 6 -13 5 -11 0 -14 -3 -6 -6z"/>
<path d="M6 5782 c-10 -10 -6 -142 4 -142 6 0 10 -7 10 -15 0 -8 -4 -15 -9
-15 -5 0 -10 -71 -10 -158 l-2 -159 33 5 c31 4 99 63 148 127 16 21 19 92 5
115 -5 9 -4 15 3 18 7 2 12 17 12 33 0 17 6 32 15 35 17 7 21 54 5 54 -5 0
-10 5 -10 10 0 18 -40 51 -86 70 -24 11 -44 18 -44 16 0 -2 -16 0 -34 4 -19 4
-37 5 -40 2z"/>
<path d="M3670 5749 c0 -3 7 -21 16 -39 13 -25 14 -37 6 -50 -9 -16 -6 -19 26
-23 46 -5 48 -3 29 25 -22 33 -76 94 -77 87z"/>
<path d="M263 5693 c-37 -7 -26 -18 17 -18 22 -1 35 2 29 6 -8 4 -7 8 2 12 16
6 -15 6 -48 0z"/>
<path d="M3511 5684 c0 -11 3 -14 6 -6 3 7 2 16 -1 19 -3 4 -6 -2 -5 -13z"/>
<path d="M7810 5499 c0 -5 5 -7 10 -4 6 3 10 8 10 11 0 2 -4 4 -10 4 -5 0 -10
-5 -10 -11z"/>
<path d="M7127 5154 c-10 -11 3 -24 24 -24 23 0 25 15 3 24 -19 7 -19 7 -27 0z"/>
<path d="M1986 4981 c-4 -7 -5 -15 -2 -18 9 -9 19 4 14 18 -4 11 -6 11 -12 0z"/>
<path d="M4776 4322 c-3 -3 -43 -6 -89 -7 -86 -2 -127 -10 -127 -26 0 -8 25
-13 72 -13 9 0 14 -4 11 -9 -4 -6 4 -7 20 -3 14 3 44 8 68 11 51 7 59 11 59
33 1 15 2 15 14 -1 9 -12 16 -14 21 -7 3 5 10 8 15 5 5 -3 11 -1 15 5 7 11 5
12 -42 16 -17 1 -34 0 -37 -4z m-139 -28 c-3 -3 -12 -4 -19 -1 -8 3 -5 6 6 6
11 1 17 -2 13 -5z"/>
<path d="M4525 4270 c-3 -5 -1 -10 4 -10 6 0 11 5 11 10 0 6 -2 10 -4 10 -3 0
-8 -4 -11 -10z"/>
<path d="M5097 3884 c-4 -4 -7 -14 -7 -23 0 -11 3 -12 11 -4 6 6 10 16 7 23
-2 6 -7 8 -11 4z"/>
<path d="M4985 3834 c-33 -13 -62 -24 -64 -24 -3 0 -1 -4 5 -10 11 -11 91 14
113 35 25 25 8 25 -54 -1z"/>
<path d="M4895 3800 c-3 -5 -1 -10 4 -10 6 0 11 5 11 10 0 6 -2 10 -4 10 -3 0
-8 -4 -11 -10z"/>
<path d="M4770 3760 c-8 -6 -44 -10 -80 -8 -37 1 -63 -2 -60 -8 7 -13 119 -5
149 11 14 8 22 14 16 14 -5 1 -17 -4 -25 -9z"/>
<path d="M330 3710 c-8 -5 -12 -12 -9 -15 8 -8 39 5 39 16 0 11 -11 11 -30 -1z"/>
<path d="M4750 3702 c0 -4 9 -13 20 -20 11 -7 20 -19 20 -27 0 -9 6 -12 15 -9
9 4 15 0 15 -10 0 -9 4 -16 8 -16 5 0 18 -9 30 -20 l22 -20 -4 31 c-4 35 -20
57 -30 40 -5 -7 -16 -2 -30 14 -13 14 -28 25 -35 25 -6 0 -11 5 -11 10 0 6 -4
10 -10 10 -5 0 -10 -3 -10 -8z"/>
<path d="M4980 3660 c0 -16 5 -30 10 -30 6 0 10 11 10 24 0 13 6 27 13 29 6 3
2 6 -10 6 -19 1 -23 -4 -23 -29z"/>
<path d="M4952 3615 c-11 -12 -10 -15 3 -15 8 0 15 7 15 15 0 18 -2 18 -18 0z"/>
<path d="M4898 3603 c7 -3 16 -2 19 1 4 3 -2 6 -13 5 -11 0 -14 -3 -6 -6z"/>
<path d="M9798 3593 c7 -3 16 -2 19 1 4 3 -2 6 -13 5 -11 0 -14 -3 -6 -6z"/>
<path d="M3780 3570 c0 -6 -28 -10 -62 -11 -35 0 -72 -5 -83 -10 -26 -12 120
-4 154 9 20 7 21 10 8 15 -10 4 -17 2 -17 -3z"/>
<path d="M3878 3573 c7 -3 16 -2 19 1 4 3 -2 6 -13 5 -11 0 -14 -3 -6 -6z"/>
<path d="M3432 3521 c-10 -6 -10 -10 3 -21 13 -11 15 -9 15 9 0 24 0 24 -18
12z"/>
<path d="M4390 3509 c0 -8 23 -13 43 -10 4 0 7 -3 7 -9 0 -5 -4 -10 -9 -10
-12 0 -9 -33 4 -42 6 -5 4 -12 -5 -18 -12 -8 -10 -10 10 -11 l25 -1 -25 -8
c-24 -8 -23 -8 7 -9 23 -1 31 3 27 12 -3 10 5 12 32 9 26 -3 35 -1 30 7 -4 7
-16 9 -27 6 -10 -4 -27 -2 -36 4 -15 9 -12 10 17 11 26 0 31 3 20 10 -8 5 -25
7 -37 3 -14 -3 -23 -1 -23 6 0 6 4 11 9 11 13 0 1 40 -13 41 -47 6 -56 5 -56
-2z"/>
<path d="M3638 3503 c-29 -7 -21 -23 11 -23 34 0 49 15 25 24 -9 3 -16 5 -17
5 -1 -1 -10 -3 -19 -6z"/>
<path d="M3305 3465 c-10 -14 -16 -17 -22 -8 -6 8 -14 9 -23 3 -23 -14 -8 -20
66 -25 l69 -5 1 29 c1 28 -1 30 -38 28 -26 -1 -43 -8 -53 -22z"/>
<path d="M3517 3475 c-4 -8 -16 -15 -27 -15 -12 0 -18 -4 -15 -10 11 -18 43
-11 48 12 7 26 2 36 -6 13z"/>
<path d="M4240 3480 c0 -5 9 -10 20 -10 11 0 20 5 20 10 0 6 -9 10 -20 10 -11
0 -20 -4 -20 -10z"/>
<path d="M3550 3448 c-6 -18 -16 -41 -21 -50 -16 -32 11 -30 29 1 9 17 23 29
30 26 6 -2 12 2 12 10 0 8 -7 15 -15 15 -9 0 -12 6 -9 15 4 8 2 15 -4 15 -5 0
-15 -15 -22 -32z"/>
<path d="M3428 3463 c-26 -6 -22 -20 7 -25 16 -4 25 -1 25 8 0 16 -10 22 -32
17z"/>
<path d="M5872 3298 c3 -7 13 -15 24 -17 16 -3 17 -1 5 13 -16 19 -34 21 -29
4z"/>
<path d="M5975 3250 c3 -4 23 -8 45 -8 22 -1 38 3 35 8 -3 5 -23 8 -45 8 -22
0 -38 -4 -35 -8z"/>
<path d="M2970 3240 c0 -5 5 -10 10 -10 6 0 10 5 10 10 0 6 -4 10 -10 10 -5 0
-10 -4 -10 -10z"/>
<path d="M6818 3223 c7 -3 16 -2 19 1 4 3 -2 6 -13 5 -11 0 -14 -3 -6 -6z"/>
<path d="M10066 3181 c-12 -19 1 -25 26 -12 13 6 15 9 6 7 -9 -3 -18 0 -21 7
-2 8 -6 7 -11 -2z"/>
<path d="M6741 3104 c0 -11 3 -14 6 -6 3 7 2 16 -1 19 -3 4 -6 -2 -5 -13z"/>
<path d="M6770 3105 c0 -9 6 -12 15 -9 8 4 15 10 15 15 0 5 -7 9 -15 9 -8 0
-15 -7 -15 -15z"/>
<path d="M6180 2993 c0 -12 38 -34 69 -40 14 -2 28 -8 31 -13 3 -5 28 -14 55
-20 43 -10 111 -36 223 -85 36 -17 72 -20 72 -7 0 16 -36 41 -57 40 -11 -1
-72 23 -134 54 -63 30 -125 59 -139 62 -45 12 -120 18 -120 9z"/>
<path d="M9390 2974 c0 -8 5 -12 10 -9 6 3 10 10 10 16 0 5 -4 9 -10 9 -5 0
-10 -7 -10 -16z"/>
<path d="M9431 2814 c0 -11 3 -14 6 -6 3 7 2 16 -1 19 -3 4 -6 -2 -5 -13z"/>
<path d="M6704 2799 c-2 -4 -14 -5 -27 -2 -12 3 2 -7 31 -21 30 -14 65 -26 78
-26 32 0 43 29 18 47 -19 14 -91 15 -100 2z"/>
<path d="M9390 2730 c-11 -21 -5 -81 13 -114 9 -19 10 -19 23 -1 16 22 18 39
4 30 -5 -3 -10 1 -10 10 0 9 5 13 10 10 6 -3 10 1 10 10 0 9 -4 13 -10 10 -6
-4 -10 8 -10 29 0 40 -14 47 -30 16z"/>
<path d="M2820 2596 c0 -55 -28 -91 -111 -142 -32 -20 -59 -41 -59 -45 0 -5
-7 -6 -15 -3 -31 12 -60 -127 -40 -187 7 -21 12 -104 13 -213 1 -177 1 -181
-33 -285 -18 -58 -43 -142 -55 -186 -12 -44 -25 -82 -29 -85 -4 -3 -19 -48
-35 -100 -37 -127 -52 -160 -74 -160 -9 0 -40 -20 -69 -45 -28 -25 -56 -45
-61 -45 -5 0 -12 -7 -16 -15 -3 -8 -15 -15 -26 -15 -20 0 -26 -2 -86 -32 -32
-16 -142 -15 -186 1 -32 11 -252 5 -293 -9 -63 -21 -73 -75 -22 -123 68 -64
121 -106 163 -129 24 -13 44 -30 44 -38 0 -13 1 -13 10 0 7 11 10 12 10 2 0
-8 6 -12 13 -9 6 2 28 -9 48 -24 20 -16 42 -29 48 -29 6 0 30 -9 54 -19 23
-11 59 -25 80 -32 51 -18 69 -39 53 -61 -6 -9 -21 -17 -31 -19 -24 -3 -103 9
-130 21 -24 10 -157 46 -204 56 -19 3 -39 10 -45 15 -6 5 -38 27 -71 48 -60
37 -101 44 -116 20 -4 -6 -46 -15 -95 -20 -121 -12 -141 -17 -204 -50 -30 -16
-73 -33 -95 -38 -73 -17 -189 -53 -280 -87 -145 -54 -335 -105 -410 -110 -38
-3 -94 -12 -124 -21 -42 -12 -63 -14 -99 -5 -27 6 -55 7 -69 1 -13 -5 -25 -4
-28 2 -4 5 -10 7 -14 5 -4 -3 -13 -1 -20 4 -21 12 -6 38 33 57 19 9 33 20 30
24 -3 5 6 11 20 15 28 7 36 22 42 84 3 33 11 51 29 67 29 26 92 32 101 10 6
-18 35 -15 67 6 15 9 30 17 35 17 5 0 14 12 21 28 8 15 17 35 23 45 5 10 6 33
2 51 -3 20 -1 36 5 40 6 4 11 16 11 27 0 11 6 22 13 25 17 6 20 46 4 57 -8 5
-5 7 8 5 11 -2 20 2 20 9 0 15 15 30 15 15 0 -7 4 -12 9 -12 12 0 22 73 11 84
-5 5 -5 18 0 31 5 14 5 26 -2 33 -6 6 -3 14 11 24 21 15 21 15 -5 26 -36 17
-55 15 -47 -5 4 -11 3 -14 -5 -9 -7 4 -12 1 -12 -8 0 -9 -6 -16 -14 -16 -16 0
-38 -49 -38 -85 0 -14 -4 -25 -9 -25 -5 0 -9 -7 -9 -15 0 -8 -10 -23 -21 -34
-12 -11 -19 -26 -16 -34 3 -9 -2 -17 -14 -20 -26 -7 -14 -37 15 -37 20 -1 20
-1 3 -14 -12 -9 -14 -16 -7 -21 15 -9 2 -25 -21 -25 -10 0 -19 -3 -19 -7 0 -5
-14 -16 -31 -25 -23 -14 -43 -17 -83 -12 -48 6 -54 4 -94 -29 -24 -20 -57 -53
-75 -74 -18 -22 -51 -58 -75 -82 l-42 -43 0 -123 c0 -173 21 -238 101 -317 48
-46 71 -61 125 -78 65 -20 83 -20 1585 -20 1134 0 1519 3 1519 11 0 7 15 44
34 83 116 241 115 239 90 271 -8 11 -19 36 -25 57 -8 31 -14 38 -35 38 -24 0
-25 -3 -23 -47 3 -48 -5 -106 -21 -173 -5 -19 -12 -57 -15 -83 -5 -38 -9 -46
-19 -38 -37 31 -195 102 -301 136 -66 20 -124 41 -130 45 -25 18 -146 44 -204
45 -59 0 -64 2 -68 24 -2 13 2 30 8 37 6 7 8 17 5 22 -3 5 4 26 14 48 11 21
20 45 20 54 0 9 4 20 9 26 5 5 14 26 21 47 6 20 16 37 21 37 5 0 9 9 9 20 0
12 13 26 33 37 64 34 197 79 259 88 26 3 57 14 70 24 19 16 21 22 11 44 -10
20 -22 27 -76 36 -35 6 -77 11 -94 11 -17 0 -54 7 -82 17 -50 16 -52 17 -45
47 4 17 10 33 13 36 4 3 31 34 59 70 29 36 65 79 80 95 43 46 82 109 88 141 3
16 12 36 20 45 8 8 14 21 14 28 0 6 10 22 23 35 33 34 33 61 -2 95 -16 16 -39
32 -50 36 -23 7 -28 25 -8 26 6 0 0 5 -15 10 -34 13 -40 52 -16 94 10 17 18
42 18 58 0 15 5 27 10 27 6 0 10 25 10 56 l0 56 -37 -6 c-27 -5 -34 -4 -23 3
13 9 12 12 -5 25 -13 10 -15 15 -7 16 8 0 12 5 10 12 -5 14 -47 18 -54 6 -3
-5 -13 -3 -21 4 -9 7 -23 13 -32 13 -11 0 -15 8 -13 25 1 14 4 44 6 68 3 23 0
42 -5 42 -5 0 -9 20 -9 45 0 31 -5 47 -15 51 -13 5 -14 36 -8 235 3 126 3 229
0 229 -4 0 -7 -20 -7 -44z m7 -473 c-3 -10 -5 -4 -5 12 0 17 2 24 5 18 2 -7 2
-21 0 -30z m13 -63 c0 -11 -4 -20 -10 -20 -5 0 -10 9 -10 20 0 11 5 20 10 20
6 0 10 -9 10 -20z m-406 -937 c11 5 18 -3 25 -31 28 -111 18 -195 -13 -111
-43 118 -60 186 -37 150 5 -8 16 -11 25 -8z m-1864 -88 c0 -8 -7 -11 -20 -8
-16 4 -18 8 -9 19 13 16 29 10 29 -11z m40 -4 c0 -6 -4 -13 -10 -16 -5 -3 -10
1 -10 9 0 9 5 16 10 16 6 0 10 -4 10 -9z m-153 -147 c-3 -3 -12 -4 -19 -1 -8
3 -5 6 6 6 11 1 17 -2 13 -5z m1796 -214 c19 -16 39 -30 45 -30 5 0 13 -7 16
-16 3 -8 10 -12 16 -9 23 14 8 -13 -18 -32 -27 -20 -28 -20 -62 -2 -19 11 -48
19 -64 19 -23 0 -27 3 -18 12 7 7 12 26 12 43 0 55 23 60 73 15z"/>
<path d="M9426 2563 c-6 -14 -5 -15 5 -6 7 7 10 15 7 18 -3 3 -9 -2 -12 -12z"/>
<path d="M4653 1995 c-7 -33 -26 -127 -43 -210 -58 -278 -119 -654 -124 -761
-4 -103 1 -134 23 -134 12 0 13 -2 3 -9 -11 -6 -10 -10 1 -19 10 -9 17 -7 30
8 19 22 22 34 7 25 -5 -3 -10 2 -10 11 0 16 1 16 19 0 18 -17 20 -16 26 3 3
11 12 20 18 18 7 -1 13 14 14 38 2 22 8 67 14 100 7 37 11 171 10 355 -1 206
4 341 15 448 17 166 15 222 -3 127z"/>
<path d="M2240 1830 c0 -5 7 -7 15 -4 8 4 15 8 15 10 0 2 -7 4 -15 4 -8 0 -15
-4 -15 -10z"/>
<path d="M2280 1826 c0 -8 -16 -17 -37 -21 -21 -4 -42 -10 -48 -14 -15 -11
-155 -48 -275 -71 -58 -12 -109 -25 -114 -31 -6 -5 -23 -9 -38 -9 -15 0 -28
-5 -28 -10 0 -6 -3 -9 -7 -9 -5 1 -10 1 -13 0 -3 -1 -28 -3 -56 -4 -90 -4
-130 -55 -89 -114 11 -16 12 -22 2 -26 -17 -5 -15 -183 3 -226 12 -29 16 -31
43 -25 17 3 37 12 44 20 8 7 20 11 27 8 7 -3 16 2 19 10 4 10 18 16 37 16 16
0 30 5 30 11 0 6 8 8 19 4 12 -3 23 0 28 9 10 18 147 45 194 38 19 -2 40 -9
47 -15 8 -7 16 -7 20 -1 4 5 30 10 57 12 36 2 46 0 35 -8 -12 -8 -11 -10 8
-10 13 0 20 4 17 10 -3 6 5 10 19 10 14 0 27 4 30 9 3 5 25 12 48 15 65 10 71
17 75 87 3 54 8 68 32 94 24 24 31 42 36 96 5 45 3 69 -4 73 -6 4 -11 15 -11
25 0 18 -91 58 -109 47 -5 -4 -12 -2 -16 4 -9 15 -25 12 -25 -4z m37 -22 c-3
-3 -12 -4 -19 -1 -8 3 -5 6 6 6 11 1 17 -2 13 -5z"/>
<path d="M7719 1499 c-1 -46 -2 -66 -12 -139 -11 -80 -17 -153 -22 -242 -4
-76 -2 -88 11 -88 14 0 14 -3 4 -15 -11 -13 -15 -13 -21 -3 -7 10 -9 9 -9 -4
0 -10 5 -18 10 -18 6 0 10 -5 10 -11 0 -5 -4 -7 -10 -4 -5 3 -10 -2 -10 -12
-1 -43 -21 -265 -30 -333 -9 -67 -37 -360 -44 -465 -2 -22 -7 -68 -11 -102
l-8 -63 93 0 92 0 -6 24 c-5 20 -3 23 14 19 11 -3 20 0 20 6 0 6 -8 11 -17 11
-15 1 -14 3 5 13 17 10 20 15 10 25 -9 9 -9 12 1 12 11 0 11 3 0 17 -11 12
-11 17 -2 20 9 3 9 10 0 31 -6 15 -15 30 -20 33 -4 3 -8 22 -9 42 -1 31 -6 39
-26 44 l-25 6 24 14 c21 11 21 13 4 11 -17 -3 -20 2 -17 32 1 19 8 37 13 39 7
2 6 7 -2 12 -12 8 -11 11 3 19 10 6 14 18 11 30 -3 11 0 20 6 20 6 0 11 7 11
15 0 8 5 15 10 15 17 0 11 20 -7 27 -10 4 -25 14 -33 22 -13 13 -13 14 3 8 20
-7 25 18 5 26 -10 4 -10 8 1 15 9 7 11 19 7 36 -4 15 -2 26 4 26 5 0 10 7 10
15 0 8 -4 15 -9 15 -4 0 -8 12 -9 28 0 15 -1 29 -2 32 -5 11 -10 58 -13 114
-1 37 -7 61 -14 64 -19 6 -16 32 3 32 12 0 15 6 11 21 -3 12 -2 31 3 43 13 35
22 123 10 106 -7 -11 -9 8 -8 63 1 45 7 77 13 77 5 0 4 4 -3 8 -12 8 -14 32
-11 180 1 34 -1 66 -5 69 -3 4 -6 -14 -7 -38z m-9 -904 c0 -8 -4 -15 -10 -15
-5 0 -10 7 -10 15 0 8 5 15 10 15 6 0 10 -7 10 -15z"/>
<path d="M1000 1410 l-1 -35 -13 30 -13 30 -12 -22 c-7 -15 -8 -23 -1 -23 5 0
10 -7 10 -15 0 -9 9 -15 25 -15 14 0 25 5 25 11 0 5 5 7 10 4 8 -5 7 -11 0
-20 -13 -16 -4 -39 11 -30 5 4 13 -5 19 -19 6 -16 17 -26 30 -26 12 0 20 -7
20 -16 0 -13 3 -14 15 -4 8 6 23 9 34 5 10 -3 23 -1 26 6 6 8 10 8 15 -1 6
-10 16 -7 40 10 28 20 31 27 26 53 -8 39 -38 72 -68 75 -13 1 -38 -6 -57 -15
-29 -13 -38 -13 -55 -3 -15 9 -21 10 -24 1 -6 -17 -22 -13 -22 5 0 8 -5 12
-10 9 -6 -3 -14 4 -19 17 -9 21 -10 20 -11 -12z"/>
<path d="M3330 1350 c-25 -27 -51 -49 -57 -50 -7 0 -13 -4 -13 -10 0 -5 -15
-17 -32 -26 -18 -9 -55 -41 -83 -70 -67 -70 -71 -76 -67 -96 4 -19 27 -24 37
-8 3 6 17 10 31 10 14 0 34 9 46 20 12 11 30 20 40 20 10 0 21 6 24 14 3 8 22
22 42 31 76 34 81 38 88 78 4 28 9 36 15 26 6 -9 9 4 9 37 0 44 -12 74 -29 74
-4 0 -26 -22 -51 -50z"/>
<path d="M946 1173 c-4 -9 -2 -21 4 -27 7 -7 10 -2 10 17 0 31 -5 34 -14 10z"/>
<path d="M65 1080 c-3 -11 -14 -20 -23 -20 -20 0 -42 -43 -42 -82 l0 -29 40
32 c23 18 38 39 36 46 -3 7 -1 13 4 13 6 0 10 14 10 30 0 34 -15 40 -25 10z"/>
<path d="M874 911 c-4 -26 -12 -41 -24 -44 -10 -3 -21 -18 -25 -36 -4 -17 -11
-31 -17 -31 -6 0 -5 -7 3 -17 11 -13 11 -17 2 -20 -15 -5 -17 -23 -4 -23 6 0
22 11 37 25 14 13 30 22 35 19 5 -3 9 0 9 5 0 6 9 11 19 11 19 0 36 25 32 48
-1 7 5 15 13 18 9 3 14 10 11 14 -3 4 2 10 10 14 30 11 14 26 -30 26 -33 0
-45 4 -45 15 0 32 -20 13 -26 -24z"/>
<path d="M7770 15 c0 -9 5 -15 11 -13 6 2 11 8 11 13 0 5 -5 11 -11 13 -6 2
-11 -4 -11 -13z"/>
</g>
</svg>
